<?xml version="1.0" encoding="UTF-8" standalone="no"?>
<!-- Created with Inkscape (http://www.inkscape.org/) -->

<svg
   width="2048"
   height="2048"
   viewBox="0 0 541.86665 541.86666"
   version="1.1"
   id="svg1"
   inkscape:version="1.3.2 (1:1.3.2+202311252150+091e20ef0f)"
   sodipodi:docname="GM.svg"
   inkscape:export-filename="GM.png"
   inkscape:export-xdpi="48"
   inkscape:export-ydpi="48"
   xmlns:inkscape="http://www.inkscape.org/namespaces/inkscape"
   xmlns:sodipodi="http://sodipodi.sourceforge.net/DTD/sodipodi-0.dtd"
   xmlns="http://www.w3.org/2000/svg"
   xmlns:svg="http://www.w3.org/2000/svg"
   xmlns:rdf="http://www.w3.org/1999/02/22-rdf-syntax-ns#"
   xmlns:cc="http://creativecommons.org/ns#">
  <sodipodi:namedview
     id="namedview1"
     pagecolor="#ffffff"
     bordercolor="#000000"
     borderopacity="0.25"
     inkscape:showpageshadow="2"
     inkscape:pageopacity="0.0"
     inkscape:pagecheckerboard="0"
     inkscape:deskcolor="#d1d1d1"
     inkscape:document-units="mm"
     inkscape:zoom="0.24853516"
     inkscape:cx="784.59725"
     inkscape:cy="784.59725"
     inkscape:window-width="1862"
     inkscape:window-height="1016"
     inkscape:window-x="58"
     inkscape:window-y="27"
     inkscape:window-maximized="1"
     inkscape:current-layer="layer1" />
  <defs
     id="defs1">
    <inkscape:path-effect
       effect="powerstroke"
       id="path-effect7"
       is_visible="true"
       lpeversion="1.3"
       scale_width="1"
       interpolator_type="CentripetalCatmullRom"
       interpolator_beta="0.2"
       start_linecap_type="zerowidth"
       end_linecap_type="zerowidth"
       offset_points="0.022466764,6.9311194 | 0.4896722,4.7765569 | 0.86053989,3.9901757"
       linejoin_type="round"
       miter_limit="4"
       not_jump="false"
       sort_points="true"
       message="&lt;b&gt;Ctrl + click&lt;/b&gt; on existing node and move it" />
    <inkscape:path-effect
       effect="powerstroke"
       id="path-effect6"
       is_visible="true"
       lpeversion="1.3"
       scale_width="17.690418"
       interpolator_type="CentripetalCatmullRom"
       interpolator_beta="0.21375921"
       start_linecap_type="zerowidth"
       end_linecap_type="zerowidth"
       offset_points="0.98648139,0.30258517 | 1.7570821,0.12915937 | 0.3372213,0.3129206"
       linejoin_type="round"
       miter_limit="4"
       not_jump="false"
       sort_points="true"
       message="&lt;b&gt;Ctrl + click&lt;/b&gt; on existing node and move it" />
    <inkscape:path-effect
       effect="powerstroke"
       id="path-effect5"
       is_visible="true"
       lpeversion="1.3"
       scale_width="4.6"
       interpolator_type="CentripetalCatmullRom"
       interpolator_beta="0.22358722"
       start_linecap_type="zerowidth"
       end_linecap_type="zerowidth"
       offset_points="1.4939411,2.2575493 | 3.1341697,2.3566316 | 2.4079627,0.63246916 | 4.6466217,0.91882529"
       linejoin_type="round"
       miter_limit="4"
       not_jump="false"
       sort_points="true"
       message="&lt;b&gt;Ctrl + click&lt;/b&gt; on existing node and move it" />
  </defs>
  <g
     inkscape:label="Layer 1"
     inkscape:groupmode="layer"
     id="layer1">
    <g
       id="g7"
       transform="matrix(0.80472706,0,0,0.80472706,53.055809,53.328296)">
      <path
         style="fill:#000000;fill-rule:nonzero;stroke:none;stroke-width:6.215;stroke-linejoin:round;stroke-dasharray:none;paint-order:fill markers stroke"
         d="m 22.737563,266.05859 c 20.187297,1.20171 46.979725,1.65039 73.646595,-3.08715 19.152342,-3.40254 37.169272,-9.24988 54.207992,-18.55184 15.20424,-8.30048 28.64185,-18.79469 41.47794,-31.48549 12.3903,-12.25005 23.70073,-26.029 34.97248,-40.51344 19.76816,-26.07892 30.01636,-51.43943 32.92094,-72.704335 1.5826,-11.586385 1.01156,-22.070781 -1.4039,-31.094903 -1.2973,-4.846679 -3.12415,-9.264387 -5.42612,-13.207086 -2.21088,-3.786688 -4.83435,-7.091217 -7.79003,-9.898842 -0.32748,-0.311074 -0.65967,-0.616577 -0.99653,-0.916432 -3.52636,-3.139024 -7.51991,-5.621172 -11.8781,-7.410171 -4.44025,-1.822681 -9.17707,-2.893229 -14.09919,-3.26374 -10.0971,-0.760054 -20.91012,1.418806 -31.99957,6.005355 -11.49836,4.755679 -23.60134,12.220158 -36.13669,22.272708 -12.93359,10.37191 -26.48212,23.621887 -40.52834,39.841156 -21.378287,25.09794 -35.966088,52.31167 -45.47637,78.91331 -6.137995,17.16886 -10.280677,34.41004 -12.747779,51.19623 -1.484069,10.09763 -2.329589,19.81053 -2.655774,29.00938 -0.937919,26.45063 2.315744,51.04905 9.270979,71.77731 3.51905,10.4876 8.171923,20.55352 14.166853,29.64455 5.622305,8.52596 12.625512,16.49179 21.231087,22.98883 7.767344,5.87144 16.229344,10.35053 25.388094,12.97277 0.6349,0.18177 1.27271,0.35449 1.91342,0.51801 7.58739,1.93646 15.62375,2.63257 24.03759,1.84729 8.14569,-0.76026 16.32328,-2.87815 24.48663,-6.26054 7.58429,-3.14245 15.00764,-7.31408 22.25022,-12.31472 13.70686,-9.4639 26.3997,-21.64452 37.83184,-34.53971 11.14408,-12.57025 20.83509,-25.53559 28.57119,-36.41779 4.00419,-5.63214 9.97649,-13.97052 17.41797,-24.33734 2.81842,-3.92638 23.68713,-32.96053 26.50554,-36.88691 22.95081,-31.92805 44.90204,-62.47759 66.11699,-92.13699 15.15739,-21.19067 27.52856,-38.55974 37.67642,-52.88512 19.18068,-27.076719 31.82718,-45.651012 38.80305,-56.484573 6.96583,-10.817952 7.73751,-13.06056 7.44494,-13.276341 -0.29333,-0.21634 -2.2058,1.18481 -10.48815,11.03071 -8.31975,9.890371 -22.28982,27.388226 -42.55878,53.707164 -10.90202,14.15611 -23.49192,30.58235 -39.50833,51.52328 -19.0071,24.85117 -48.1116,62.97305 -68.90393,90.03529 -10.1033,13.14995 -19.66467,25.54449 -27.73973,35.9109 -7.77608,9.98259 -14.21656,18.13929 -18.47511,23.32806 -8.37124,10.20069 -18.29211,22.07557 -29.34618,33.48075 -11.38501,11.74663 -23.22379,22.21637 -35.34002,30.10475 -6.35374,4.13666 -12.5354,7.40022 -18.54634,9.78977 -6.44639,2.56265 -12.53409,4.05595 -18.31164,4.63339 -5.94156,0.59384 -11.54059,0.21813 -16.88212,-0.9379 -0.45485,-0.0984 -0.90919,-0.20257 -1.36305,-0.31238 -6.50545,-1.5741 -13.02851,-4.34776 -19.60192,-8.45134 -7.050541,-4.39196 -13.428166,-10.07205 -19.066517,-16.69446 -6.007849,-7.05639 -11.273105,-15.29643 -15.652281,-24.43124 -8.698577,-18.14492 -14.420739,-40.93786 -14.717778,-66.84379 -0.10247,-8.9369 0.441099,-18.39966 1.805242,-28.26936 2.26947,-16.4198 6.696892,-33.14265 13.358613,-49.5923 10.341072,-25.53501 26.170297,-50.67159 48.075411,-73.18417 14.42346,-15.096208 28.07451,-26.936538 40.72258,-35.824387 12.29479,-8.639603 23.47039,-14.367846 33.29531,-17.625295 9.51001,-3.153036 17.4166,-3.881926 23.70339,-3.008999 3.03501,0.421414 5.69003,1.214076 8.00699,2.284227 2.26484,1.046083 4.28563,2.393389 6.07951,4.027238 0.17333,0.157863 0.34495,0.318785 0.51487,0.482791 1.5223,1.469375 2.96938,3.253513 4.26886,5.4183 1.35851,2.263107 2.57013,4.965362 3.51809,8.177732 1.77103,6.001576 2.60079,13.752635 1.65118,23.238178 -1.74657,17.446375 -9.52947,40.233095 -26.98761,65.121825 -10.25731,14.991 -20.13427,28.95579 -30.94121,41.49367 -11.13776,12.92169 -22.86344,23.85231 -36.46388,32.8711 -15.30149,10.1468 -32.04805,17.23056 -50.560081,21.92435 -25.863254,6.55773 -52.412982,7.66737 -72.745756,7.27871 z"
         id="path1"
         sodipodi:nodetypes="csszsc"
         inkscape:path-effect="#path-effect5"
         inkscape:original-d="M 22.737563,266.05859 C 137.49569,270.56921 177.02399,226.62621 220.24553,167.45571 292.07305,69.123503 229.55509,-20.781326 114.19017,106.12178 28.954615,199.88216 38.935778,335.49018 99.183334,377.39423 159.43089,419.29828 218.6654,348.62886 251.11846,306.14336 283.57152,263.65784 451.93793,35.372026 451.93793,35.372026"
         transform="translate(3.3807572,20.604806)" />
      <path
         style="fill:#000000;fill-rule:nonzero;stroke:none;stroke-width:10;stroke-linejoin:round;stroke-dasharray:none;paint-order:fill markers stroke"
         d="m 270.2337,275.94803 c -0.15124,15.2695 -1.1583,42.88186 -5.1758,72.66894 -1.0637,7.88661 -2.25799,15.34671 -3.56324,22.40431 -2.28265,12.34245 -5.18573,24.64219 -8.88928,35.73002 -2.58421,7.73671 -5.50428,14.71838 -8.77282,20.61606 -3.14062,5.66684 -6.49045,10.12828 -9.99457,13.30784 -1.71285,1.5542 -3.43687,2.77887 -5.16724,3.69532 -1.72048,0.91121 -3.46745,1.52877 -5.25465,1.86116 -1.79254,0.33339 -3.68423,0.39086 -5.69877,0.12766 -1.59599,-0.20852 -3.28394,-0.62041 -5.06871,-1.26798 -0.49139,-0.17829 -0.99427,-0.37541 -1.50877,-0.59281 -3.75745,-1.62142 -6.90619,-3.32676 -9.48171,-5.11498 -2.46238,-1.70965 -4.35382,-3.46221 -5.76579,-5.25127 -1.3633,-1.72739 -2.31407,-3.53124 -2.8996,-5.45207 -0.58099,-1.90597 -0.82405,-3.99035 -0.6973,-6.32775 0.12645,-2.33164 0.62143,-4.87443 1.49337,-7.64693 0.87412,-2.77944 2.1064,-5.72445 3.65635,-8.83321 3.18333,-6.38482 7.60911,-13.26303 12.61173,-20.40217 11.72778,-16.7365 25.8263,-34.62418 35.92605,-49.28562 0.35635,-0.51731 0.70836,-1.03027 1.05631,-1.53927 8.03259,-11.75027 14.63131,-22.46226 20.08503,-33.23924 5.33759,-10.54752 8.42724,-18.94986 10.14406,-24.49657 z m 0.14011,-1.02516 c -1.41313,5.31483 -3.8083,13.53418 -8.4555,24.01074 -4.70125,10.59841 -10.85412,21.59647 -18.6583,33.14262 -0.3409,0.50436 -0.68672,1.0124 -1.03757,1.52426 -12.77087,18.63178 -21.32275,27.76986 -37.07658,48.26276 -5.3524,6.96251 -10.36755,13.90808 -14.17637,20.52524 -1.86623,3.24226 -3.47507,6.45895 -4.7193,9.63463 -1.24027,3.1656 -2.13387,6.32962 -2.55,9.47734 -0.42036,3.17969 -0.35252,6.33859 0.33164,9.44316 0.69781,3.16648 2.01151,6.15883 3.94167,8.95575 1.9775,2.86551 4.54845,5.44918 7.62784,7.78369 3.20807,2.43207 6.9722,4.59714 11.20428,6.53737 0.67375,0.31234 1.34325,0.60095 2.00851,0.86638 2.41648,0.96413 4.84468,1.65669 7.27882,2.05533 3.08993,0.50603 6.14898,0.53153 9.15173,0.0664 2.99236,-0.46351 5.85684,-1.40309 8.57722,-2.76196 2.72143,-1.35939 5.26704,-3.12222 7.64168,-5.20781 4.80737,-4.22221 8.95607,-9.80312 12.53708,-16.21103 3.74391,-6.69941 6.92526,-14.40668 9.61506,-22.64056 3.85774,-11.80912 6.71604,-24.73448 8.78723,-37.47249 1.18535,-7.29001 2.17485,-15.01865 2.96614,-23.1001 2.98667,-30.50252 2.46101,-58.58798 2.03937,-73.9303 z"
         id="path2"
         sodipodi:nodetypes="csc"
         inkscape:path-effect="#path-effect6"
         inkscape:original-d="m 273.82108,275.91617 c 0.91503,103.02158 -21.19366,192.90551 -64.84834,173.44332 -65.54363,-29.22075 40.27054,-88.14554 64.84834,-173.44332 z"
         transform="translate(3.3807572,20.604806)" />
      <path
         style="fill:#000000;fill-rule:nonzero;stroke:none;stroke-width:10;stroke-linejoin:round;stroke-dasharray:none;paint-order:fill markers stroke"
         d="m 283.71701,285.50471 c 1.4393,0.26994 4.68994,2.68284 8.13484,2.30781 1.86539,-0.20307 4.29169,-1.08025 6.6823,-1.85546 2.45522,-0.79615 4.77179,-1.45792 7.21057,-1.75887 1.92046,-0.23698 4.01349,-0.26059 6.35597,0.18145 2.17495,0.41043 4.61576,1.23122 7.36744,2.687 2.65929,1.40689 5.46323,3.33057 8.40603,5.81167 2.96017,2.49573 5.93035,5.44552 8.87876,8.75094 5.99712,6.72327 11.68873,14.68975 16.25765,21.96739 0.47038,0.74925 0.94159,1.50651 1.41388,2.27162 11.43459,18.52424 23.47008,41.47171 35.38744,58.94877 6.44567,9.45271 12.50757,16.94982 18.38744,22.6889 0.87526,0.85429 1.76342,1.6831 2.66169,2.48477 5.0365,4.49487 10.01853,7.81193 14.61313,10.20813 4.54825,2.37202 8.18336,3.56767 10.40146,4.30874 -1.96417,-1.31605 -4.89211,-3.6394 -8.39642,-7.08481 -3.60223,-3.54169 -7.16513,-7.60605 -11.22148,-12.60578 -0.71523,-0.88157 -1.4292,-1.7713 -2.14937,-2.67478 -4.93471,-6.19079 -10.19498,-13.23012 -16.437,-22.61835 -12.54309,-18.86531 -22.77174,-37.57872 -35.11919,-58.55459 -0.46387,-0.78802 -0.9254,-1.56981 -1.38511,-2.34595 -4.36101,-7.36279 -9.56833,-16.44377 -14.92784,-24.3475 -2.68123,-3.95404 -5.4975,-7.76814 -8.47732,-11.23769 -2.95664,-3.44257 -6.08816,-6.56283 -9.45205,-9.18324 -3.49984,-2.72631 -7.21771,-4.88442 -11.1872,-6.30766 -4.39163,-1.57459 -8.80401,-2.14293 -13.08986,-1.80646 -5.24245,0.41156 -9.79832,2.13884 -13.32099,4.26648 -3.53844,2.13716 -6.01015,4.65719 -7.12927,6.67965 -2.05416,3.71224 0.0442,7.35622 0.1345,8.81782 z"
         id="path4"
         sodipodi:nodetypes="cc"
         inkscape:path-effect="#path-effect7"
         inkscape:original-d="m 283.71701,285.50471 c 60.04515,-53.04134 88.62542,107.81117 152.1586,139.00286" />
      <circle
         style="fill:none;stroke:#000000;stroke-width:6.981;stroke-linejoin:round;stroke-dasharray:none;paint-order:fill markers stroke"
         id="path6"
         cx="271.70078"
         cy="273.09619"
         r="247.21167" />
      <path
         style="fill:#000000;stroke:none;stroke-width:5.53802;stroke-linejoin:round;stroke-dasharray:none;paint-order:fill markers stroke"
         d="M 422.68884,67.531471 478.51797,22.766608 452.2801,90.145493 c 0,0 -1.7694,-19.377582 -5.92351,-21.873914 -4.15413,-2.49633 -23.66775,-0.740108 -23.66775,-0.740108 z"
         id="path7"
         sodipodi:nodetypes="ccczc" />
      <path
         id="rect7"
         style="stroke-width:10;stroke-linejoin:round;paint-order:fill markers stroke"
         d="m 269.65652,78.14874 c 8.29631,-8.635669 14.33959,-35.908941 14.33959,-35.908941 V 263.09654 l -14.33959,21.74692 c 0,0 -0.66437,-165.80663 0,-206.69472 z"
         sodipodi:nodetypes="ccccc" />
    </g>
    <circle
       style="fill:none;stroke:none;stroke-width:7.70919;stroke-linejoin:round;stroke-dasharray:none;paint-order:fill markers stroke"
       id="circle8"
       cx="271.70078"
       cy="273.09619"
       r="272.99832"
       transform="matrix(0.80472706,0,0,0.80472706,53.055808,53.328295)" />
    <g
       id="g8">
      <path
         style="font-size:24.6944px;font-family:'DejaVu Serif';-inkscape-font-specification:'DejaVu Serif';stroke-width:16.213;stroke-linejoin:round;paint-order:fill markers stroke"
         d="m 514.07029,283.38174 -0.0952,2.12003 -3.30506,2.63968 0.0628,-1.3973 2.04921,-2.35814 -1.82949,-2.5324 0.0628,-1.39729 z m -10.55676,6.07971 q 2.27148,-0.3204 3.40361,-1.60931 1.14418,-1.28836 1.25134,-3.6734 0.13962,-3.10778 -1.79123,-4.72741 -1.93085,-1.61964 -5.97819,-1.80148 -3.96302,-0.17804 -6.06964,1.30848 -2.10661,1.48652 -2.24407,4.54612 -0.0611,1.36116 0.22039,2.61701 0.28153,1.25586 0.90576,2.40641 l 4.63758,0.20836 0.15207,-3.38483 1.28889,0.0579 -0.26193,5.8301 -6.70944,-0.30143 q -0.85554,-1.64375 -1.24198,-3.51989 -0.37493,-1.86355 -0.28022,-3.97154 0.18292,-4.07143 2.83495,-6.41456 2.66354,-2.33054 6.89157,-2.14058 4.26416,0.19158 6.68335,2.76254 2.43123,2.5715 2.24453,6.72726 -0.0693,1.54184 -0.50424,3.16382 -0.42347,1.63456 -1.22955,3.45712 l -4.26417,-0.19158 z m -8.40388,17.38954 1.17367,-9.48954 -0.0957,-0.0118 q -2.57283,-0.31821 -4.00904,0.48828 -1.42425,0.80797 -1.65809,2.6987 -0.17909,1.44796 0.46085,2.46264 0.65042,1.02812 2.10037,1.58409 l -0.21905,1.77106 q -2.02904,-0.78554 -2.90598,-2.33981 -0.87842,-1.54231 -0.59277,-3.85187 0.34485,-2.78823 2.38591,-4.26104 2.05155,-1.45937 5.09107,-1.08344 3.0156,0.37297 4.65273,2.26426 1.63714,1.89129 1.30265,4.59575 -0.35669,2.88396 -2.33064,4.20713 -1.96199,1.32465 -5.35595,0.96563 z m 1.58963,-2.43988 q 2.23468,0.20349 3.46758,-0.53095 1.2434,-0.72099 1.44468,-2.34846 0.18797,-1.51976 -0.84082,-2.53393 -1.02879,-1.01417 -3.21893,-1.47944 z m -8.04019,3.90664 1.25451,0.24454 -0.38296,1.96462 10.0598,1.96095 0.40603,-2.08297 1.26635,0.24685 -0.83051,4.26062 -2.23683,-0.43602 q 1.16053,0.85274 1.62459,1.93827 0.46176,1.09736 0.2126,2.37554 -0.40603,2.08297 -1.79285,2.83228 -1.38682,0.7493 -3.91953,0.2556 l -6.74598,-1.31499 -0.37835,1.94095 -1.25451,-0.24454 1.17195,-6.01221 1.25452,0.24454 -0.36682,1.88178 6.05955,1.18118 q 2.30784,0.44986 3.2707,0.0479 0.9747,-0.39968 1.25384,-1.83172 0.2953,-1.51489 -0.66263,-2.52469 -0.94609,-1.0075 -3.06457,-1.42045 l -5.75184,-1.1212 -0.36911,1.89361 -1.25452,-0.24455 z m -0.37578,29.14386 2.4764,-9.2356 -0.0932,-0.025 q -2.50398,-0.67141 -4.03803,-0.0716 -1.52241,0.60297 -2.01582,2.4431 -0.37786,1.40922 0.11541,2.50273 0.50179,1.10828 1.86078,1.85967 l -0.46218,1.72367 q -1.90071,-1.05894 -2.55398,-2.71967 -0.65639,-1.64908 -0.0537,-3.89684 0.72762,-2.71361 2.95296,-3.88961 2.23387,-1.16123 5.19205,-0.36803 2.9349,0.78695 4.29437,2.88671 1.35948,2.09977 0.65372,4.73186 -0.7526,2.80678 -2.89076,3.84387 -2.12651,1.04021 -5.43806,0.21468 z m 1.91217,-2.19625 q 2.18497,0.51096 3.5077,-0.0457 1.33125,-0.54187 1.75596,-2.12578 0.39659,-1.4791 -0.48185,-2.62595 -0.87844,-1.14686 -2.98306,-1.91092 z m 0.209,17.03981 -3.04243,-1.01533 0.40461,-1.2124 q 0.92266,0.24436 1.5176,-0.0529 0.59493,-0.29721 0.88121,-1.15503 0.51912,-1.55553 -0.27738,-2.74929 -0.80032,-1.18231 -2.81336,-1.85411 l -5.55872,-1.85508 -0.81303,2.43623 -1.2124,-0.4046 2.14899,-6.43943 1.2124,0.4046 -0.63363,1.89866 9.74493,3.25212 0.6718,-2.01304 1.20095,0.40079 -1.37413,4.11757 -2.16173,-0.72142 q 1.06347,1.04133 1.34522,2.21584 0.29319,1.17832 -0.17249,2.57372 -0.17177,0.5147 -0.43887,1.04843 -0.27091,0.54517 -0.62954,1.12462 z m -12.07266,6.57413 2.51697,1.01255 1.06655,-2.65122 q 0.61653,-1.53255 0.25804,-2.54757 -0.35849,-1.01501 -1.72325,-1.56403 -1.24171,-0.49953 -2.27485,-0.0314 -1.03314,0.46817 -1.55517,1.76581 -0.51752,1.28646 -0.0383,2.38903 0.47473,1.11376 1.75,1.62679 z m 2.86352,3.54339 -6.2421,-2.51112 -0.73803,1.8346 -1.18578,-0.47703 1.56608,-3.89292 1.28645,0.51753 q -0.55329,-1.0154 -0.5848,-2.06783 -0.0315,-1.05243 0.45001,-2.24939 0.79654,-1.98002 2.31609,-2.7204 1.51956,-0.74038 3.30941,-0.0204 1.84578,0.74254 2.32823,2.48326 0.48245,1.74072 -0.49409,4.1682 l -1.16106,2.88613 0.81662,0.32851 q 1.35357,0.54453 2.4249,0.0137 1.07801,-0.5151 1.67654,-2.00292 0.49503,-1.23052 0.22821,-2.18265 -0.26681,-0.95214 -1.29109,-1.57214 l 0.42752,-1.06273 2.40511,0.96755 q 0.0266,1.25842 -0.15466,2.35521 -0.1746,1.11248 -0.56162,2.07452 -0.99455,2.47223 -2.74259,3.26366 -1.74136,0.80712 -4.07935,-0.13343 z m -9.47829,4.59511 -0.88216,1.90359 -1.15966,-0.53742 2.71241,-5.85297 1.15966,0.53741 -0.89738,1.9364 14.70355,6.81398 0.89738,-1.9364 1.15965,0.53741 -1.83024,3.94939 z m -3.29689,12.6458 2.39956,1.26589 1.33341,-2.52754 q 0.77079,-1.46107 0.51853,-2.50756 -0.25227,-1.04648 -1.55337,-1.73288 -1.18378,-0.6245 -2.25957,-0.265 -1.07579,0.3595 -1.72843,1.59661 -0.64701,1.22644 -0.28365,2.37243 0.35774,1.15666 1.57352,1.79805 z m 2.48414,3.81896 -5.95093,-3.13942 -0.92269,1.74902 -1.13046,-0.59638 1.95791,-3.71133 1.22645,0.64701 q -0.446,-1.06689 -0.36917,-2.11698 0.0768,-1.0501 0.67884,-2.19123 0.99583,-1.88766 2.58344,-2.46793 1.58761,-0.58027 3.29397,0.31992 1.75969,0.92832 2.06066,2.70941 0.30097,1.78109 -0.91991,4.09534 l -1.45156,2.75151 0.77853,0.41071 q 1.29043,0.68077 2.41064,0.26291 1.12525,-0.40158 1.87354,-1.81999 0.61888,-1.17312 0.45134,-2.14764 -0.16753,-0.97452 -1.12266,-1.69652 l 0.53449,-1.01315 2.29292,1.20963 q -0.10286,1.25449 -0.39592,2.32684 -0.28802,1.08865 -0.77188,2.00581 -1.24339,2.35691 -3.06352,2.96448 -1.8151,0.62385 -4.04403,-0.55202 z m -13.06666,6.5456 1.05836,0.71657 -1.28443,1.89707 12.78024,8.65297 1.28442,-1.89706 1.06835,0.72333 -3.94116,5.821 -1.06835,-0.72333 1.28443,-1.89707 -5.64128,-3.81948 1.29451,10.23955 1.09514,-1.6175 1.06835,0.72334 -3.35303,4.95234 -1.06835,-0.72334 1.13571,-1.6774 -1.28806,-10.20606 -12.00595,2.31191 -1.14922,1.69737 -1.05836,-0.71657 2.34576,-3.46464 11.86523,-2.27613 -6.02068,-4.07637 -1.28443,1.89707 -1.05836,-0.71658 z m -13.20317,19.92131 q -1.10745,1.39935 -0.56242,2.98397 0.53755,1.59407 2.69331,3.30016 2.15575,1.70608 3.82123,1.8555 1.66746,0.16636 2.77491,-1.23299 1.10746,-1.39935 0.56991,-2.99343 -0.53558,-1.57714 -2.69133,-3.28322 -2.15576,-1.70608 -3.8307,-1.86298 -1.67493,-0.15691 -2.77491,1.23299 z m -0.93605,-0.7408 q 1.73601,-2.19358 4.23772,-2.38187 2.51115,-0.18081 4.91274,1.71982 2.40159,1.90064 2.80062,4.36922 0.39155,2.47803 -1.35194,4.68106 -1.7435,2.20304 -4.23772,2.38188 -2.5017,0.18829 -4.90329,-1.71234 -2.40159,-1.90064 -2.80259,-4.38616 -0.39903,-2.46858 1.34446,-4.67161 z m -4.76988,7.53909 2.22401,1.99898 -0.8544,0.95058 q -1.09941,-0.92331 -2.19273,-0.77113 -1.10139,0.16115 -2.21372,1.39871 -0.99949,1.112 -1.11089,2.06568 -0.10244,0.96175 0.69569,1.67912 0.62774,0.56423 1.40026,0.48037 0.76445,-0.0749 2.43711,-1.052 l 1.47558,-0.83 q 1.49885,-0.87393 2.59047,-0.89795 1.08356,-0.0151 1.99827,0.80711 1.3093,1.17682 1.19116,2.80538 -0.11813,1.62857 -1.64154,3.32348 -0.67707,0.75329 -1.62398,1.40997 -0.94691,0.65667 -2.12153,1.20595 l -2.08053,-1.87001 0.8544,-0.95059 q 0.95593,0.79435 2.02416,0.65204 1.06824,-0.1423 2.01131,-1.19153 0.935,-1.04027 1.05094,-1.90881 0.10789,-0.85957 -0.62747,-1.52053 -0.60084,-0.54004 -1.33124,-0.46697 -0.72143,0.0811 -2.18623,0.95325 l -1.58036,0.94658 q -1.6386,0.9753 -2.8073,0.99489 -1.16779,0.0366 -2.16322,-0.85809 -1.35413,-1.21712 -1.19933,-2.95863 0.15572,-1.72449 1.79198,-3.54495 0.83021,-0.92368 1.81742,-1.6252 0.98721,-0.70151 2.17171,-1.2257 z m -10.14247,24.36711 q 0.50356,1.46461 0.27281,2.66063 -0.23125,1.21306 -1.19584,2.12345 -1.46442,1.38213 -3.0442,1.14881 -1.57151,-0.22456 -3.30124,-2.05727 l -4.71745,-4.99831 -1.45565,1.37385 -0.87728,-0.92951 4.47217,-4.22088 0.87728,0.92951 -1.40303,1.3242 4.54365,4.81416 q 1.34902,1.42935 2.34099,1.63714 0.99197,0.2078 1.96533,-0.71086 1.07858,-1.01797 0.87888,-2.37144 -0.20848,-1.3452 -1.68165,-2.90607 l -4.02225,-4.26172 -1.40303,1.32419 -0.87728,-0.92951 4.41956,-4.17122 0.87728,0.92951 -1.40304,1.3242 4.60159,4.87555 q 1.31592,1.39426 2.29134,1.58453 0.98369,0.19903 1.95705,-0.71963 1.07858,-1.01798 0.87887,-2.37145 -0.20847,-1.34519 -1.68164,-2.90607 l -4.02225,-4.26172 -1.40303,1.3242 -0.87729,-0.92951 4.47218,-4.22088 0.87728,0.92951 -1.45565,1.37385 7.05135,7.47117 1.54334,-1.45662 0.869,0.92074 -3.15683,2.97944 -1.5642,-1.65733 q 0.43006,1.3516 0.20078,2.49648 -0.22928,1.14489 -1.10618,1.97251 -1.08735,1.02625 -2.3283,1.1695 -1.23267,0.15202 -2.41342,-0.60713 z m -20.24216,4.92304 q -1.39948,1.1073 -1.23331,2.77477 0.15671,1.67495 1.86255,3.8309 1.70584,2.15595 3.29237,2.68423 1.58456,0.54521 2.98403,-0.56209 1.39948,-1.10729 1.24276,-2.78225 -0.15868,-1.65802 -1.86452,-3.81397 -1.70584,-2.15595 -3.29985,-2.69368 -1.59401,-0.53773 -2.98403,0.56209 z m -0.7407,-0.93614 q 2.19378,-1.73576 4.67177,-1.34393 2.48547,0.40129 4.38583,2.80309 1.90037,2.4018 1.72124,4.896 -0.18858,2.50168 -2.39181,4.24493 -2.20322,1.74324 -4.67176,1.34393 -2.47799,-0.39183 -4.37835,-2.79363 -1.90036,-2.40181 -1.71927,-4.91294 0.17913,-2.4942 2.38235,-4.23745 z m -6.44816,5.48031 0.72098,1.05537 -1.65275,1.12908 5.78144,8.46286 1.75231,-1.1971 0.72778,1.06532 -3.58427,2.44861 -1.28552,-1.88174 q 0.22681,1.42217 -0.20556,2.5207 -0.44232,1.10533 -1.5176,1.83992 -1.75231,1.19709 -3.26565,0.75605 -1.51335,-0.44105 -2.96891,-2.5717 l -3.87696,-5.67508 -1.63283,1.11547 -0.72098,-1.05537 5.0578,-3.45525 0.72098,1.05536 -1.58306,1.08147 3.48247,5.09763 q 1.32633,1.94148 2.29395,2.33185 0.97443,0.40033 2.17914,-0.42268 1.27441,-0.87061 1.30212,-2.26222 0.0345,-1.38165 -1.18299,-3.16383 l -3.30562,-4.83876 -1.59301,1.08827 -0.72098,-1.05536 z m -18.75858,16.82643 1.37063,2.34132 2.46619,-1.44374 q 1.4256,-0.83457 1.76338,-1.85666 0.33778,-1.02209 -0.40541,-2.2916 -0.67618,-1.15505 -1.77974,-1.4172 -1.10356,-0.26214 -2.31064,0.4445 -1.19667,0.70055 -1.49257,1.86578 -0.3063,1.17133 0.38816,2.3576 z m 0.0956,4.55481 -3.39918,-5.80647 -1.70656,0.99904 -0.64573,-1.10302 3.62124,-2.11992 0.70055,1.19668 q 0.18397,-1.14163 0.80323,-1.99317 0.61926,-0.85155 1.73268,-1.50336 1.84184,-1.07824 3.49667,-0.73362 1.65483,0.34461 2.6295,2.00954 1.00514,1.71697 0.32119,3.38882 -0.68395,1.67184 -2.94202,2.99375 l -2.68471,1.57166 0.44469,0.75963 q 0.7371,1.25911 1.90919,1.49511 1.16777,0.25249 2.55175,-0.55771 1.14464,-0.67009 1.51644,-1.58634 0.37179,-0.91625 -0.0587,-2.0335 l 0.98855,-0.57871 1.30972,2.23726 q -0.7492,1.01144 -1.56389,1.76782 -0.81901,0.77287 -1.71391,1.29675 -2.29969,1.34627 -4.16646,0.90218 -1.87107,-0.4276 -3.14424,-2.60242 z m -0.67274,13.28871 -1.03727,0.51381 q -0.56329,-0.78401 -1.31782,-0.89467 -0.74918,-0.0999 -1.82966,0.43536 -1.08049,0.53522 -1.45502,1.1917 -0.36917,0.66729 -0.0868,1.59045 l -1.03727,0.51381 q -0.65731,-1.59862 -0.18908,-2.79939 0.46823,-1.20077 2.03493,-1.97684 1.56671,-0.77606 2.80565,-0.42093 1.23894,0.35513 2.11235,1.8467 z m -7.82234,-3.45877 -3.71688,1.84115 -5.12202,-10.34026 -1.88005,0.93127 -0.56733,-1.14531 3.86815,-1.91608 1.0062,2.03132 q -0.0163,-1.41828 0.5592,-2.45688 0.58082,-1.02779 1.73694,-1.60047 1.91246,-0.94733 3.35529,-0.31643 1.43737,0.64706 2.58809,2.97011 l 3.04538,6.14797 1.79361,-0.88846 0.57268,1.15612 -3.79251,1.87861 -3.31299,-6.68821 q -1.03832,-2.09615 -1.9315,-2.62254 -0.90399,-0.52105 -2.22219,0.13191 -1.38302,0.68508 -1.60384,2.05933 -0.22083,1.37425 0.73721,3.30833 l 2.5851,5.21875 1.72878,-0.85635 z m -10.09993,3.26808 1.79831,-0.76271 0.50377,1.18777 -1.79831,0.76271 1.55369,3.66322 -2.05362,0.871 -1.55369,-3.66321 -3.84082,1.62901 -0.50377,-1.18776 3.84082,-1.62902 -3.17799,-7.49294 q -0.6356,-1.49858 -1.10312,-1.79799 -0.46753,-0.29942 -1.24457,0.0301 -0.79925,0.33899 -0.96783,0.96058 -0.16387,0.6327 0.2612,1.69668 l -1.54299,0.65443 q -0.59387,-1.64726 -0.12117,-2.72528 0.4727,-1.07802 2.08229,-1.7607 1.765,-0.7486 2.82722,-0.28229 1.06692,0.47741 1.86259,2.35342 z m -7.51164,8.76652 q 0.19569,0.51899 -0.032,1.04298 -0.23897,0.52824 -0.76924,0.72819 -0.51899,0.19569 -1.03595,-0.0475 -0.52825,-0.23896 -0.72394,-0.75795 -0.19994,-0.53028 0.032,-1.04298 0.23194,-0.51271 0.76221,-0.71266 0.53028,-0.19994 1.05426,0.0277 0.51271,0.23193 0.71266,0.76221 z m -8.12644,-13.52077 -1.96315,0.74022 -0.45093,-1.19594 6.02481,-2.2717 0.45094,1.19594 -1.98571,0.74872 3.61602,9.59007 1.9857,-0.74873 0.4552,1.20722 -4.06168,1.53149 z m -9.649,1.97764 5.92802,-1.88938 0.38812,1.21777 -1.90707,0.60782 4.92117,15.44043 2.03345,-0.6481 0.38813,1.21777 -4.14732,1.32184 -3.70919,-11.63777 -3.63457,6.38511 1.75773,-0.56022 0.39179,1.22926 -5.52593,1.76122 -0.39179,-1.22926 2.09089,-0.66641 2.56116,-4.51168 -6.68449,-4.93125 -1.75772,0.56022 -0.38813,-1.21777 6.01993,-1.91867 0.38812,1.21777 -1.74623,0.55656 5.25342,3.85605 1.17151,-2.08186 -1.1058,-3.4695 -1.90708,0.60782 z m -14.54352,4.98833 q -1.73313,0.42531 -2.27518,2.01096 -0.55376,1.58851 0.10146,4.25847 0.65521,2.66997 1.87855,3.80996 1.21451,1.15458 2.94764,0.72927 1.73314,-0.42532 2.28689,-2.01383 0.54493,-1.57394 -0.11029,-4.2439 -0.65521,-2.66996 -1.88143,-3.82167 -1.22621,-1.1517 -2.94764,-0.72926 z m -0.2845,-1.15933 q 2.7168,-0.66671 4.80765,0.71978 2.09372,1.3982 2.82365,4.37263 0.72993,2.97443 -0.46984,5.16844 -1.21147,2.19688 -3.93999,2.86646 -2.72851,0.66959 -4.80764,-0.71977 -2.09085,-1.38649 -2.82078,-4.36092 -0.72993,-2.97443 0.47867,-5.18302 1.19977,-2.19401 3.92828,-2.8636 z"
         id="text8"
         transform="rotate(-136.86643,272.28905,276.91385)"
         aria-label="Ĝenerala Kosmonaŭtiko" />
      <path
         style="font-size:24.6944px;font-family:'DejaVu Serif';-inkscape-font-specification:'DejaVu Serif';stroke-width:16.213;stroke-linejoin:round;paint-order:fill markers stroke"
         d="m 497.8881,278.30556 -0.26812,6.60224 8.68806,-2.95374 z m -6.31143,-5.34891 1.27708,0.0519 -0.0641,1.57827 16.45012,7.0881 -0.0822,2.02404 -16.9712,5.7429 -0.0719,1.77104 -1.27707,-0.0519 0.26567,-6.542 1.27708,0.0519 -0.0812,1.99994 4.01286,-1.3455 0.30727,-7.56607 -3.89055,-1.66647 -0.0802,1.97586 -1.27707,-0.0519 z m -0.26446,19.41937 2.97226,0.32834 -0.14034,1.2704 q -1.4315,-0.10961 -2.23128,0.65122 -0.80111,0.77282 -0.98381,2.42674 -0.16417,1.48613 0.30108,2.32605 0.47724,0.84124 1.54389,0.95907 0.83895,0.0927 1.41785,-0.42567 0.57757,-0.50636 1.3674,-2.27518 l 0.7154,-1.53442 q 0.70871,-1.58368 1.5818,-2.23936 0.87176,-0.6437 2.09422,-0.50866 1.7498,0.19329 2.60289,1.58556 0.85309,1.39227 0.60286,3.65742 -0.11121,1.00673 -0.498,2.0922 -0.38679,1.08547 -1.02123,2.21637 l -2.7805,-0.30715 0.14034,-1.2704 q 1.23974,0.0884 2.02489,-0.64976 0.78515,-0.73818 0.94005,-2.14042 0.15358,-1.39025 -0.25837,-2.16362 -0.41327,-0.7614 -1.39603,-0.86996 -0.80299,-0.0887 -1.35395,0.39634 -0.53897,0.48636 -1.22106,2.04872 l -0.73262,1.69022 q -0.7632,1.7475 -1.70151,2.4445 -0.92765,0.71032 -2.25797,0.56336 -1.80972,-0.19991 -2.69884,-1.70534 -0.87845,-1.49213 -0.60969,-3.92506 0.13637,-1.23445 0.52978,-2.37984 0.39341,-1.1454 1.05049,-2.26167 z m -1.47682,12.62936 2.94838,0.49915 -0.21335,1.2602 q -1.4228,-0.19196 -2.26511,0.5215 -0.84434,0.72534 -1.12209,2.36598 -0.24957,1.47419 0.16648,2.33953 0.42794,0.86736 1.48603,1.04649 0.8322,0.14089 1.44002,-0.34322 0.60581,-0.47222 1.4963,-2.19256 l 0.80268,-1.49061 q 0.79884,-1.54019 1.70828,-2.14445 0.90742,-0.59237 2.12006,-0.38707 1.73575,0.29385 2.50714,1.73299 0.7714,1.43914 0.391,3.6861 -0.16906,0.99864 -0.6178,2.06001 -0.44873,1.06136 -1.14731,2.1538 l -2.75816,-0.46694 0.21334,-1.2602 q 1.23258,0.15975 2.05899,-0.53194 0.8264,-0.69169 1.06189,-2.08266 0.23347,-1.37908 -0.1332,-2.17492 -0.36868,-0.78395 -1.34355,-0.94899 -0.79654,-0.13486 -1.37455,0.31761 -0.56611,0.45448 -1.33715,1.97492 l -0.82885,1.64517 q -0.86268,1.70059 -1.83961,2.34234 -0.96706,0.65565 -2.2867,0.43224 -1.79518,-0.30392 -2.59602,-1.85811 -0.79097,-1.54029 -0.38239,-3.95368 0.20731,-1.22453 0.66611,-2.34534 0.45879,-1.12081 1.17914,-2.19734 z m -3.42693,18.44454 q -0.40751,1.73741 0.75947,2.94 1.16423,1.21434 3.84077,1.84212 2.67654,0.62779 4.24755,0.055 1.58,-0.55829 1.98751,-2.2957 0.40751,-1.7374 -0.75671,-2.95174 -1.15525,-1.19984 -3.83179,-1.82762 -2.67654,-0.62779 -4.25929,-0.0578 -1.58275,0.57003 -1.98751,2.29569 z m -1.16218,-0.27259 q 0.6388,-2.7235 2.82313,-3.95745 2.19608,-1.2312 5.17784,-0.53183 2.98177,0.69938 4.39238,2.76415 1.40787,2.07651 0.76632,4.81175 -0.64156,2.73523 -2.82314,3.95745 -2.18434,1.23395 -5.1661,0.53458 -2.98177,-0.69938 -4.40137,-2.77864 -1.41062,-2.06477 -0.76906,-4.80001 z m -1.39671,20.59038 q -1.82382,-1.04719 -2.46036,-2.64024 -0.63654,-1.59306 -0.0181,-3.62312 0.81519,-2.676 3.07541,-3.76476 2.27176,-1.08524 5.20151,-0.19273 2.9413,0.89601 4.19909,3.05647 1.26934,2.16397 0.45414,4.83996 -0.35489,1.16499 -0.9831,2.2341 -0.61667,1.07263 -1.52522,2.06896 l -3.13738,-0.95575 0.37598,-1.23419 q 1.68862,0.2497 2.6763,-0.34436 0.98417,-0.58253 1.44448,-2.09355 0.52355,-1.71864 -0.5474,-3.00286 -1.05942,-1.2807 -3.71235,-2.08887 -2.65293,-0.80817 -4.25446,-0.35068 -1.60505,0.46902 -2.13212,2.19919 -0.41814,1.3726 0.0475,2.4094 0.46566,1.03681 1.81611,1.77593 z m 10.91394,7.88349 q 0.52195,0.18766 0.77311,0.70081 0.24708,0.5245 0.0553,1.05779 -0.18766,0.52195 -0.70808,0.75768 -0.52449,0.24708 -1.04644,0.0594 -0.53329,-0.19175 -0.77311,-0.70082 -0.23981,-0.50907 -0.0481,-1.04236 0.19174,-0.5333 0.70489,-0.78445 0.50907,-0.23982 1.04236,-0.0481 z m -15.5619,-2.58406 -0.70986,1.97432 -1.20275,-0.43244 2.17854,-6.05913 1.20275,0.43244 -0.71802,1.99702 9.64468,3.46772 0.71802,-1.99702 1.2141,0.43652 -1.46868,4.08481 z m -2.10521,12.72948 2.50239,1.04809 1.10398,-2.63584 q 0.63817,-1.52368 0.29409,-2.54366 -0.34408,-1.01999 -1.70093,-1.58829 -1.23451,-0.51705 -2.27418,-0.0636 -1.03966,0.4535 -1.58001,1.74362 -0.53569,1.27899 -0.0721,2.38824 0.45891,1.12037 1.72678,1.6514 z m 2.81306,3.58359 -6.20591,-2.59926 -0.76394,1.82396 -1.1789,-0.49376 1.62104,-3.87036 1.279,0.53569 q -0.53886,-1.02312 -0.55546,-2.0759 -0.0166,-1.05277 0.48181,-2.24279 0.8245,-1.96854 2.35439,-2.68733 1.52989,-0.71879 3.30936,0.0265 1.83508,0.76859 2.29284,2.51597 0.45775,1.74738 -0.55307,4.16079 l -1.20181,2.8694 0.81188,0.34004 q 1.34573,0.56364 2.42447,0.0481 1.0852,-0.49978 1.70473,-1.97897 0.5124,-1.22339 0.2591,-2.17921 -0.25331,-0.95582 -1.2687,-1.59026 l 0.44252,-1.05657 2.39117,1.00151 q 0.009,1.25867 -0.188,2.35279 -0.19033,1.10989 -0.59094,2.06636 -1.02945,2.4579 -2.78853,3.22449 -1.75261,0.78238 -4.07705,-0.19118 z m 0.71866,6.79001 0.85445,-1.75658 1.1602,0.56436 -0.85445,1.75658 3.57821,1.74054 -0.97576,2.00597 -3.57821,-1.74055 -1.82493,3.7517 -1.16021,-0.56436 1.82494,-3.7517 -7.31906,-3.5602 q -1.46382,-0.71204 -2.01299,-0.63055 -0.54917,0.0815 -0.91837,0.84051 -0.37976,0.7807 -0.0984,1.36004 0.29219,0.58462 1.31173,1.10737 l -0.73314,1.50719 q -1.53004,-0.85153 -1.88205,-1.97477 -0.352,-1.12324 0.41279,-2.69549 0.83862,-1.72404 1.94574,-2.07048 1.11797,-0.34116 2.95045,0.55021 z m 0.0977,11.54414 q 0.48853,0.26265 0.6612,0.80725 0.16696,0.55522 -0.1014,1.05437 -0.26265,0.48853 -0.81216,0.64487 -0.55522,0.16695 -1.04375,-0.0957 -0.49915,-0.26836 -0.6612,-0.80725 -0.16205,-0.53889 0.10631,-1.03804 0.26836,-0.49915 0.81296,-0.67182 0.53889,-0.16205 1.03804,0.10631 z m -15.01006,-4.85266 -0.99349,1.84793 -1.12575,-0.60524 3.04899,-5.67121 1.12575,0.60523 -1.00491,1.86916 9.02722,4.85327 1.00491,-1.86916 1.13637,0.61094 -2.0555,3.82329 z m -5.44013,8.57779 q -0.92531,1.52592 -0.18791,3.03069 0.73115,1.51507 3.0819,2.94055 2.35074,1.42547 4.0219,1.36713 1.67521,-0.0418 2.60052,-1.5677 0.92531,-1.52592 0.19416,-3.041 -0.72709,-1.49851 -3.07784,-2.92399 -2.35075,-1.42548 -4.03221,-1.37339 -1.68146,0.0521 -2.60052,1.56771 z m -1.02072,-0.61896 q 1.45048,-2.39199 3.9095,-2.88917 2.46933,-0.49093 5.08815,1.0971 2.61882,1.58802 3.321,3.98804 0.69593,2.41032 -0.7608,4.81262 -1.45674,2.4023 -3.90951,2.88917 -2.45902,0.49718 -5.07783,-1.09085 -2.61882,-1.58803 -3.32506,-4.0046 -0.70219,-2.40001 0.75455,-4.80231 z m -4.13142,7.38535 1.04384,0.73758 -1.15507,1.63469 8.37039,5.91451 1.22465,-1.73316 1.05369,0.74453 -2.50498,3.54511 -1.86118,-1.31511 q 0.70866,1.25371 0.68666,2.43407 -0.029,1.1902 -0.78046,2.25373 -1.22465,1.73316 -2.79678,1.84772 -1.57214,0.11456 -3.6795,-1.37451 l -5.61309,-3.9662 -1.14115,1.61499 -1.04384,-0.73757 3.53479,-5.00254 1.04384,0.73757 -1.10636,1.56576 5.04193,3.56262 q 1.92026,1.35686 2.96328,1.38518 1.05286,0.0353 1.89481,-1.15628 0.89066,-1.26048 0.4312,-2.57434 -0.44962,-1.3069 -2.21233,-2.55243 l -4.78589,-3.38171 -1.11332,1.5756 -1.04383,-0.73757 z m -21.09022,28.89118 -1.40419,1.59119 -0.95833,-0.84571 2.8722,-3.2547 1.50078,1.3244 q -0.47325,-1.28604 -0.23703,-2.42843 0.23728,-1.12537 1.21862,-2.2374 1.56375,-1.772 3.96238,-1.66547 2.39968,0.12356 4.65989,2.11814 2.26022,1.99459 2.67223,4.3523 0.41202,2.3577 -1.15971,4.13875 -0.98134,1.11203 -2.0775,1.47946 -1.0951,0.38444 -2.43001,0.0748 l 4.99959,4.41202 1.38823,-1.57311 0.95833,0.8457 -2.85625,3.23663 z m 4.84025,1.3124 0.94929,0.83773 q 1.7268,1.52386 3.23033,1.66065 1.49554,0.14583 2.61251,-1.11989 1.13292,-1.2838 0.70276,-2.83736 -0.43813,-1.54451 -2.43616,-3.30772 -1.98899,-1.75524 -3.58504,-2.00585 -1.60404,-0.24157 -2.73696,1.04223 -1.11697,1.26572 -0.7953,2.72354 0.32273,1.47483 2.05857,3.00667 z m -8.49917,2.44338 q 0.48151,0.47339 0.49562,1.12981 0.0141,0.65641 -0.46773,1.14652 -0.46493,0.47291 -1.12995,0.47857 -0.66502,0.006 -1.14653,-0.46773 -0.47291,-0.46493 -0.47856,-1.12995 -0.006,-0.66502 0.45927,-1.13793 0.48184,-0.49011 1.12981,-0.49562 0.65656,0.003 1.13807,0.47633 z m -11.0156,9.94433 1.95252,2.2649 -0.96806,0.83454 q -0.97342,-1.05529 -2.07722,-1.043 -1.11293,0.0202 -2.37324,1.10664 -1.13245,0.97626 -1.36391,1.90811 -0.22359,0.94099 0.47711,1.75379 0.55111,0.63929 1.32803,0.65409 0.76777,0.0227 2.55085,-0.73441 l 1.56893,-0.63615 q 1.59759,-0.67677 2.68344,-0.56214 1.07672,0.12249 1.87977,1.05403 1.14947,1.33337 0.82574,2.9338 -0.32373,1.60043 -2.04981,3.08844 -0.76714,0.66133 -1.78969,1.19261 -1.02254,0.53128 -2.25735,0.92714 l -1.82655,-2.11878 0.96807,-0.83455 q 0.84745,0.90918 1.92511,0.9035 1.07766,-0.006 2.14618,-0.92682 1.05939,-0.91328 1.28456,-1.7601 0.21603,-0.83895 -0.42956,-1.58783 -0.5275,-0.61189 -1.26126,-0.63204 -0.7259,-0.011 -2.28948,0.66827 l -1.68765,0.7385 q -1.74907,0.7596 -2.91082,0.6308 -1.163,-0.11179 -2.03691,-1.12551 -1.18883,-1.37904 -0.8144,-3.08685 0.37317,-1.69082 2.2271,-3.28905 0.94067,-0.81093 2.00888,-1.38157 1.06821,-0.57064 2.30962,-0.94036 z m -8.78393,15.54454 -0.76282,-1.01047 q -1.39487,-1.8477 -2.83115,-2.28933 -1.43863,-0.42474 -2.78591,0.59235 -1.35691,1.02436 -1.22886,2.63489 0.11842,1.6178 1.71671,3.73496 1.60556,2.12679 3.12175,2.67427 1.50657,0.55476 2.86347,-0.4696 1.34729,-1.0171 1.32567,-2.52667 -0.0312,-1.50232 -1.41886,-3.3404 z m 4.47329,2.24318 1.70335,-1.2859 0.77735,1.02971 -3.47407,2.62265 -1.20599,-1.59749 q 0.20683,1.35465 -0.25046,2.40995 -0.45966,1.07218 -1.64334,1.96577 -1.8862,1.42393 -4.20558,0.83315 -2.31938,-0.59078 -4.13562,-2.99665 -1.81624,-2.40587 -1.75627,-4.80799 0.0673,-2.39249 1.95345,-3.81642 1.18368,-0.89359 2.33351,-1.05155 1.14746,-0.14106 2.39363,0.42898 l -3.52351,-4.66739 -1.67448,1.26411 -0.77735,-1.02971 5.14856,-3.88676 0.77735,1.02971 -1.70336,1.2859 z m -23.34441,7.33506 1.48034,2.27355 2.3948,-1.55929 q 1.38434,-0.90136 1.67318,-1.93834 0.28883,-1.03699 -0.51384,-2.26976 -0.7303,-1.12162 -1.84507,-1.33103 -1.11476,-0.20941 -2.2869,0.55378 -1.16204,0.75662 -1.40224,1.9346 -0.2503,1.18456 0.49973,2.33649 z m 0.3119,4.54512 -3.67123,-5.6384 -1.65716,1.079 -0.6974,-1.07109 3.51642,-2.28959 0.75662,1.16204 q 0.12951,-1.14908 0.70761,-2.02909 0.5781,-0.88 1.6593,-1.58398 1.78852,-1.16453 3.45786,-0.89894 1.66933,0.2656 2.72202,1.88234 1.08558,1.66727 0.48183,3.36973 -0.60374,1.70245 -2.79645,3.13015 l -2.607,1.69745 0.48029,0.73765 q 0.79609,1.22266 1.97806,1.4027 1.17845,0.19673 2.52237,-0.67832 1.11152,-0.72371 1.43936,-1.6566 0.32784,-0.93288 -0.15526,-2.02841 l 0.95994,-0.62503 1.41455,2.1725 q -0.7003,1.0459 -1.47814,1.84013 -0.78135,0.81091 -1.65036,1.37673 -2.23313,1.45401 -4.11888,1.09912 -1.88928,-0.33822 -3.26435,-2.45009 z m -15.80649,4.31669 q -0.59464,-2.01726 0.0461,-3.60862 0.64076,-1.59136 2.49063,-2.63138 2.43845,-1.37093 4.82455,-0.596 2.39201,0.78543 3.89294,3.45512 1.50684,2.6802 0.92304,5.111 -0.57789,2.44132 -3.01634,3.81225 -1.06157,0.59683 -2.25445,0.93549 -1.18697,0.34917 -2.53218,0.44149 l -1.6073,-2.85888 1.12463,-0.63228 q 1.04801,1.34739 2.17245,1.60052 1.11393,0.25903 2.49082,-0.51507 1.56607,-0.88047 1.67941,-2.54879 0.11925,-1.65782 -1.23986,-4.07526 -1.35911,-2.41743 -2.83287,-3.19347 -1.48427,-0.77013 -3.06086,0.11625 -1.25076,0.70319 -1.63064,1.7744 -0.37988,1.0712 0.0855,2.53867 z m 2.44101,13.24024 q 0.24759,0.49634 0.0745,1.04081 -0.18386,0.54986 -0.69098,0.80283 -0.49633,0.24759 -1.0354,0.0584 -0.54985,-0.18385 -0.79744,-0.68018 -0.25298,-0.50713 -0.0745,-1.04081 0.17845,-0.53368 0.68557,-0.78666 0.50712,-0.25297 1.0516,-0.0799 0.53368,0.17845 0.78665,0.68557 z m -9.46275,-12.62167 -1.87743,0.93654 -0.57053,-1.14372 5.76177,-2.8742 0.57054,1.14372 -1.89902,0.94731 4.57504,9.17136 1.89901,-0.9473 0.57591,1.15452 -3.88434,1.93766 z m -9.39154,3.86939 q -1.63601,0.71282 -1.90156,2.36738 -0.2766,1.65938 0.82153,4.17972 1.09814,2.52033 2.49695,3.43657 1.39257,0.9321 3.02858,0.21928 1.63601,-0.71282 1.91261,-2.3722 0.27036,-1.6435 -0.82777,-4.16384 -1.09813,-2.52034 -2.50176,-3.44763 -1.40363,-0.92728 -3.02858,-0.21928 z m -0.47682,-1.09436 q 2.56455,-1.11739 4.86009,-0.10522 2.30035,1.02323 3.5237,3.83097 1.22336,2.80775 0.41269,5.17332 -0.82173,2.37039 -3.39734,3.4926 -2.57561,1.12221 -4.86009,0.10522 -2.29553,-1.01217 -3.51889,-3.81992 -1.22336,-2.80774 -0.40645,-5.18918 0.81068,-2.36557 3.38629,-3.48779 z m -7.63469,3.65015 0.42728,1.20459 -1.88643,0.66915 3.42636,9.65945 2.00007,-0.70946 0.43132,1.21596 -4.09106,1.45116 -0.76186,-2.14781 q -0.14422,1.4329 -0.843,2.38444 -0.71015,0.95556 -1.93747,1.39091 -2.00007,0.70946 -3.35042,-0.10374 -1.35035,-0.81319 -2.21299,-3.2451 l -2.29767,-6.47751 -1.86371,0.66108 -0.42729,-1.20459 5.77295,-2.04775 0.42728,1.20459 -1.80688,0.64093 2.06387,5.8184 q 0.78605,2.21599 1.62176,2.84071 0.83974,0.63609 2.21479,0.14834 1.4546,-0.51597 1.83707,-1.85427 0.38651,-1.32694 -0.33504,-3.3611 l -1.95907,-5.52293 -1.81825,0.64496 -0.42728,-1.20459 z m -22.43626,11.47296 0.72669,2.61388 2.75328,-0.76545 q 1.59156,-0.44247 2.17936,-1.34427 0.5878,-0.90181 0.19377,-2.31911 -0.35849,-1.28951 -1.3584,-1.82501 -0.9999,-0.5355 -2.3475,-0.16085 -1.33598,0.37142 -1.91987,1.42232 -0.59551,1.05413 -0.22733,2.37849 z m -1.07176,4.42795 -1.80218,-6.4824 -1.90522,0.52967 -0.34235,-1.23143 4.04279,-1.12394 0.37141,1.33598 q 0.46966,-1.05668 1.28599,-1.72166 0.81634,-0.66498 2.05938,-1.01056 2.05625,-0.57166 3.56804,0.18446 1.51178,0.75613 2.02853,2.61489 0.53291,1.91684 -0.55564,3.35834 -1.08854,1.4415 -3.60948,2.14235 l -2.99724,0.83327 0.23577,0.84806 q 0.39079,1.40568 1.46363,1.93342 1.06445,0.54258 2.60954,0.11303 1.27789,-0.35527 1.87153,-1.14606 0.59363,-0.79079 0.46299,-1.98096 l 1.10364,-0.30682 0.69439,2.4977 q -0.98284,0.78636 -1.96379,1.30938 -0.98935,0.53787 -1.98843,0.81562 -2.5674,0.71377 -4.25865,-0.19271 -1.69964,-0.89163 -2.37465,-3.31963 z m -10.72537,7.33218 -4.064,0.82998 -2.30899,-11.30595 -2.05563,0.41982 -0.25575,-1.25228 4.22939,-0.86377 0.4536,2.22103 q 0.34676,-1.37533 1.16858,-2.23234 0.82423,-0.8452 2.08832,-1.10337 2.09107,-0.42705 3.32472,0.55167 1.22424,0.99296 1.74298,3.53296 l 1.37285,6.72214 1.96112,-0.40052 0.25816,1.26409 -4.1467,0.84688 -1.49348,-7.31284 q -0.46808,-2.29191 -1.19705,-3.02912 -0.74079,-0.73479 -2.18209,-0.44043 -1.51218,0.30883 -2.07692,1.58099 -0.56474,1.27217 -0.13286,3.38687 l 1.16535,5.70614 1.89024,-0.38604 z m -10.59973,0.57808 1.93352,-0.27775 0.18345,1.27707 -1.93352,0.27775 0.56579,3.93865 -2.20803,0.31718 -0.56579,-3.93864 -4.12961,0.59322 -0.18345,-1.27708 4.12961,-0.59322 -1.15729,-8.05633 q -0.23146,-1.61126 -0.60693,-2.02023 -0.37547,-0.40896 -1.21094,-0.28894 -0.85934,0.12344 -1.18119,0.6813 -0.32015,0.5698 -0.18114,1.70708 l -1.659,0.23832 q -0.15313,-1.74434 0.57941,-2.66573 0.73253,-0.9214 2.46315,-1.17 1.89771,-0.27261 2.80546,0.44971 0.90946,0.73425 1.19921,2.75131 z m -21.61836,-3.00159 9.52582,-0.82919 -0.008,-0.0961 q -0.22481,-2.58267 -1.31283,-3.81934 -1.08698,-1.22465 -2.98494,-1.05944 -1.4535,0.12652 -2.31258,0.96381 -0.87004,0.85036 -1.11172,2.38432 l -1.77784,0.15475 q 0.34556,-2.14817 1.68302,-3.32969 1.32545,-1.18048 3.64384,-1.38228 2.79889,-0.24364 4.66463,1.44578 1.85477,1.70248 2.12036,4.75362 0.2635,3.02712 -1.2452,5.02237 -1.50869,1.99526 -4.22349,2.23157 -2.89499,0.25199 -4.60038,-1.40297 -1.70436,-1.64294 -2.06033,-5.03722 z m 2.71752,1.04641 q 0.26657,2.22803 1.24176,3.28086 0.96423,1.0659 2.59791,0.92369 1.52557,-0.13279 2.30314,-1.3503 0.77757,-1.21751 0.77633,-3.45653 z m -5.85308,-6.37447 0.0739,2.98942 -1.27774,0.0316 q -0.0837,-1.43325 -0.94506,-2.12358 -0.87343,-0.69003 -2.5369,-0.6489 -1.49471,0.037 -2.26452,0.61083 -0.76951,0.58592 -0.74298,1.65873 0.0209,0.84379 0.61228,1.34781 0.57936,0.50432 2.43825,1.04937 l 1.61661,0.50279 q 1.66453,0.48955 2.43156,1.26664 0.75497,0.77739 0.78538,2.00691 0.0435,1.7599 -1.22154,2.79229 -1.26505,1.03238 -3.54328,1.08872 -1.01255,0.025 -2.14014,-0.21243 -1.12759,-0.23747 -2.33347,-0.71424 l -0.0691,-2.79656 1.27774,-0.0316 q 0.0789,1.24038 0.91588,1.91925 0.83697,0.67887 2.24731,0.644 1.39828,-0.0346 2.1093,-0.54668 0.69897,-0.51181 0.67453,-1.50024 -0.02,-0.80763 -0.57462,-1.28844 -0.55436,-0.46875 -2.19419,-0.93478 l -1.77332,-0.49892 q -1.83418,-0.52154 -2.65091,-1.35771 -0.8285,-0.82381 -0.86158,-2.16182 -0.045,-1.82018 1.32734,-2.90346 1.36059,-1.07093 3.80758,-1.13144 1.24157,-0.0307 2.42943,0.20528 1.18786,0.23598 2.38228,0.73715 z"
         id="text8-7"
         transform="rotate(41.259756,275.57927,266.39065)"
         aria-label="Association d. spacionautes" />
      <path
         style="font-size:24.6944px;font-family:'DejaVu Serif';-inkscape-font-specification:'DejaVu Serif';stroke-width:16.213;stroke-linejoin:round;paint-order:fill markers stroke"
         d="m 503.51353,289.46145 q 2.27148,-0.3204 3.40361,-1.60931 1.14418,-1.28836 1.25134,-3.6734 0.13962,-3.10778 -1.79123,-4.72741 -1.93085,-1.61964 -5.97819,-1.80148 -3.96302,-0.17804 -6.06964,1.30848 -2.10661,1.48652 -2.24407,4.54612 -0.0611,1.36116 0.22039,2.61701 0.28153,1.25586 0.90576,2.40641 l 4.63758,0.20836 0.15207,-3.38483 1.28889,0.0579 -0.26193,5.8301 -6.70944,-0.30143 q -0.85554,-1.64375 -1.24198,-3.51989 -0.37493,-1.86355 -0.28022,-3.97154 0.18292,-4.07143 2.83495,-6.41456 2.66354,-2.33054 6.89157,-2.14058 4.26416,0.19158 6.68335,2.76254 2.43123,2.5715 2.24453,6.72726 -0.0693,1.54184 -0.50424,3.16382 -0.42347,1.63456 -1.22955,3.45712 l -4.26417,-0.19158 z m -8.40388,17.38954 1.17367,-9.48954 -0.0957,-0.0118 q -2.57283,-0.31821 -4.00904,0.48828 -1.42425,0.80797 -1.65809,2.6987 -0.17909,1.44796 0.46085,2.46264 0.65042,1.02812 2.10037,1.58409 l -0.21905,1.77106 q -2.02904,-0.78554 -2.90598,-2.33981 -0.87842,-1.54231 -0.59277,-3.85187 0.34485,-2.78823 2.38591,-4.26104 2.05155,-1.45937 5.09107,-1.08344 3.0156,0.37297 4.65273,2.26426 1.63714,1.89129 1.30265,4.59575 -0.35669,2.88396 -2.33064,4.20713 -1.96199,1.32465 -5.35595,0.96563 z m 1.58963,-2.43988 q 2.23468,0.20349 3.46758,-0.53095 1.2434,-0.72099 1.44468,-2.34846 0.18797,-1.51976 -0.84082,-2.53393 -1.02879,-1.01417 -3.21893,-1.47944 z m -8.04019,3.90664 1.25451,0.24454 -0.38296,1.96462 10.0598,1.96095 0.40603,-2.08297 1.26635,0.24685 -0.83051,4.26062 -2.23683,-0.43602 q 1.16053,0.85274 1.62459,1.93827 0.46176,1.09736 0.2126,2.37554 -0.40603,2.08297 -1.79285,2.83228 -1.38682,0.7493 -3.91953,0.2556 l -6.74598,-1.31499 -0.37835,1.94095 -1.25451,-0.24454 1.17195,-6.01221 1.25452,0.24454 -0.36682,1.88178 6.05955,1.18118 q 2.30784,0.44986 3.2707,0.0479 0.9747,-0.39968 1.25384,-1.83172 0.2953,-1.51489 -0.66263,-2.52469 -0.94609,-1.0075 -3.06457,-1.42045 l -5.75184,-1.1212 -0.36911,1.89361 -1.25452,-0.24455 z m -0.37578,29.14386 2.4764,-9.2356 -0.0932,-0.025 q -2.50398,-0.67141 -4.03803,-0.0716 -1.52241,0.60297 -2.01582,2.4431 -0.37786,1.40922 0.11541,2.50273 0.50179,1.10828 1.86078,1.85967 l -0.46218,1.72367 q -1.90071,-1.05894 -2.55398,-2.71967 -0.65639,-1.64908 -0.0537,-3.89684 0.72762,-2.71361 2.95296,-3.88961 2.23387,-1.16123 5.19205,-0.36803 2.9349,0.78695 4.29437,2.88671 1.35948,2.09977 0.65372,4.73186 -0.7526,2.80678 -2.89076,3.84387 -2.12651,1.04021 -5.43806,0.21468 z m 1.91217,-2.19625 q 2.18497,0.51096 3.5077,-0.0457 1.33125,-0.54187 1.75596,-2.12578 0.39659,-1.4791 -0.48185,-2.62595 -0.87844,-1.14686 -2.98306,-1.91092 z m 0.209,17.03981 -3.04243,-1.01533 0.40461,-1.2124 q 0.92266,0.24436 1.5176,-0.0529 0.59493,-0.29721 0.88121,-1.15503 0.51912,-1.55553 -0.27738,-2.74929 -0.80032,-1.18231 -2.81336,-1.85411 l -5.55872,-1.85508 -0.81303,2.43623 -1.2124,-0.4046 2.14899,-6.43943 1.2124,0.4046 -0.63363,1.89866 9.74493,3.25212 0.6718,-2.01304 1.20095,0.40079 -1.37413,4.11757 -2.16173,-0.72142 q 1.06347,1.04133 1.34522,2.21584 0.29319,1.17832 -0.17249,2.57372 -0.17177,0.5147 -0.43887,1.04843 -0.27091,0.54517 -0.62954,1.12462 z m -12.07266,6.57413 2.51697,1.01255 1.06655,-2.65122 q 0.61653,-1.53255 0.25804,-2.54757 -0.35849,-1.01501 -1.72325,-1.56403 -1.24171,-0.49953 -2.27485,-0.0314 -1.03314,0.46817 -1.55517,1.76581 -0.51752,1.28646 -0.0383,2.38903 0.47473,1.11376 1.75,1.62679 z m 2.86352,3.54339 -6.2421,-2.51112 -0.73803,1.8346 -1.18578,-0.47703 1.56608,-3.89292 1.28645,0.51753 q -0.55329,-1.0154 -0.5848,-2.06783 -0.0315,-1.05243 0.45001,-2.24939 0.79654,-1.98002 2.31609,-2.7204 1.51956,-0.74038 3.30941,-0.0204 1.84578,0.74254 2.32823,2.48326 0.48245,1.74072 -0.49409,4.1682 l -1.16106,2.88613 0.81662,0.32851 q 1.35357,0.54453 2.4249,0.0137 1.07801,-0.5151 1.67654,-2.00292 0.49503,-1.23052 0.22821,-2.18265 -0.26681,-0.95214 -1.29109,-1.57214 l 0.42752,-1.06273 2.40511,0.96755 q 0.0266,1.25842 -0.15466,2.35521 -0.1746,1.11248 -0.56162,2.07452 -0.99455,2.47223 -2.74259,3.26366 -1.74136,0.80712 -4.07935,-0.13343 z m -9.47829,4.59511 -0.88216,1.90359 -1.15966,-0.53742 2.71241,-5.85297 1.15966,0.53741 -0.89738,1.9364 14.70355,6.81398 0.89738,-1.9364 1.15965,0.53741 -1.83024,3.94939 z m -10.46452,26.54516 q -1.77071,-1.96181 -1.94185,-4.24321 -0.16684,-2.2649 1.28558,-4.73997 0.89098,-1.51833 2.17378,-2.51313 1.2828,-0.9948 2.8835,-1.4116 1.84824,-0.48125 3.66061,-0.18665 1.81666,0.3111 3.68857,1.40957 3.61901,2.12371 4.60748,5.51386 0.99886,3.39625 -1.0089,6.81768 -0.74452,1.26873 -1.91946,2.50858 -1.17494,1.23984 -2.82123,2.49669 l -3.57741,-2.0993 0.68959,-1.17514 q 2.1809,0.76251 3.78994,0.1409 1.60295,-0.61121 2.82957,-2.7015 1.45852,-2.48548 0.44123,-4.80205 -1.00689,-2.31048 -4.42831,-4.31824 -3.41103,-2.00165 -5.92956,-1.75996 -2.50813,0.24779 -3.96665,2.73327 -1.01914,1.73671 -0.85666,3.34196 0.17287,1.61135 1.52306,3.07473 z m -8.47502,5.41453 q -1.01867,1.46525 -0.37655,3.01308 0.63523,1.55772 2.89251,3.12703 2.25727,1.5693 3.92881,1.6153 1.67455,0.0628 2.69322,-1.40247 1.01868,-1.46525 0.38344,-3.02297 -0.63222,-1.54094 -2.88949,-3.11025 -2.25727,-1.56931 -3.93871,-1.62219 -1.68144,-0.0529 -2.69323,1.40247 z m -0.98013,-0.68141 q 1.59684,-2.29687 4.08208,-2.63973 2.49514,-0.33597 5.00982,1.41229 2.51468,1.74826 3.06582,4.18739 0.54426,2.44904 -1.05946,4.75581 -1.60373,2.30677 -4.08208,2.63973 -2.48524,0.34286 -4.99992,-1.4054 -2.51468,-1.74827 -3.06884,-4.20418 -0.55114,-2.43913 1.05258,-4.74591 z m -4.29383,7.81999 2.34353,1.85741 -0.79389,1.00167 q -1.15448,-0.85346 -2.23628,-0.63386 -1.08929,0.22904 -2.12285,1.53311 -0.92871,1.17176 -0.98084,2.13052 -0.0427,0.96624 0.79834,1.63281 0.66148,0.52427 1.42732,0.39273 0.75835,-0.12209 2.36729,-1.20091 l 1.42134,-0.91978 q 1.44186,-0.96507 2.5299,-1.05665 1.08054,-0.0821 2.04441,0.68182 1.37966,1.09347 1.36261,2.72622 -0.0171,1.63276 -1.43258,3.41876 -0.62912,0.79378 -1.53355,1.50783 -0.90442,0.71405 -2.04277,1.33502 l -2.19234,-1.73758 0.79389,-1.00167 q 1.00328,0.73362 2.06066,0.52544 1.05737,-0.20819 1.93365,-1.31381 0.86879,-1.09617 0.93072,-1.97022 0.0544,-0.86461 -0.72043,-1.47875 -0.63313,-0.5018 -1.3576,-0.38364 -0.71502,0.12566 -2.123,1.08681 l -1.51871,1.04263 q -1.57506,1.0749 -2.74031,1.16683 -1.16328,0.10886 -2.2122,-0.72248 -1.42691,-1.13093 -1.38024,-2.87869 0.0486,-1.73082 1.569,-3.64911 0.77142,-0.97332 1.71329,-1.73463 0.94187,-0.7613 2.09164,-1.35783 z m -8.61401,24.94842 q 0.5933,1.43062 0.43705,2.63863 -0.15569,1.22506 -1.06204,2.19343 -1.37602,1.47017 -2.96722,1.33513 -1.5824,-0.12681 -3.42231,-1.84889 l -5.01793,-4.69657 -1.36777,1.46136 -0.93316,-0.8734 4.2022,-4.48973 0.93316,0.8734 -1.31834,1.40854 4.83306,4.52355 q 1.43495,1.34306 2.43789,1.48903 1.00293,0.14597 1.91753,-0.83121 1.01347,-1.08281 0.73033,-2.42132 -0.29138,-1.3297 -1.85838,-2.79635 l -4.27844,-4.00445 -1.31834,1.40854 -0.93316,-0.8734 4.15276,-4.43691 0.93316,0.8734 -1.31834,1.40854 4.89469,4.58123 q 1.39974,1.3101 2.38506,1.43959 0.99414,0.13773 1.90873,-0.83945 1.01348,-1.08281 0.73034,-2.42132 -0.29138,-1.3297 -1.85839,-2.79635 l -4.27844,-4.00445 -1.31834,1.40854 -0.93316,-0.8734 4.2022,-4.48973 0.93316,0.8734 -1.36777,1.46137 7.50048,7.02015 1.45017,-1.5494 0.92436,0.86516 -2.96626,3.16922 -1.66384,-1.55729 q 0.51294,1.32237 0.355,2.47926 -0.15794,1.15689 -0.9819,2.03722 -1.02172,1.09162 -2.25141,1.31145 -1.2209,0.22806 -2.44639,-0.45652 z m -19.89847,6.16717 q -1.32821,1.19183 -1.0591,2.84582 0.26014,1.66203 2.09621,3.70821 1.83608,2.04617 3.45228,2.47518 1.61528,0.44604 2.9435,-0.7458 1.32821,-1.19184 1.06808,-2.85387 -0.26106,-1.64501 -2.09714,-3.69118 -1.83607,-2.04618 -3.46033,-2.48416 -1.62425,-0.43799 -2.9435,0.7458 z m -0.79724,-0.88847 q 2.08207,-1.86829 4.57957,-1.63067 2.50556,0.2466 4.55101,2.52611 2.04545,2.27951 2.02113,4.78001 -0.0333,2.50856 -2.12434,4.3849 -2.09105,1.87634 -4.57957,1.63066 -2.4975,-0.23762 -4.54295,-2.51713 -2.04546,-2.27951 -2.02021,-4.79704 0.0243,-2.5005 2.11536,-4.37684 z m -6.09638,5.86909 0.78495,1.00869 -1.57965,1.22926 6.29442,8.08859 1.67481,-1.30332 0.79236,1.01821 -3.42575,2.66587 -1.39959,-1.79852 q 0.31445,1.40539 -0.0491,2.52859 -0.37302,1.13061 -1.40075,1.93037 -1.67481,1.30332 -3.21256,0.95683 -1.53775,-0.34648 -3.12247,-2.3829 l -4.22096,-5.4241 -1.56062,1.21445 -0.78495,-1.00869 4.83411,-3.76185 0.78495,1.0087 -1.51304,1.17742 3.79147,4.87218 q 1.44401,1.85562 2.43395,2.18532 0.99735,0.33922 2.14878,-0.55681 1.21805,-0.94787 1.15953,-2.33852 -0.0511,-1.38113 -1.37664,-3.08449 l -3.59893,-4.62477 -1.52256,1.18483 -0.78495,-1.00869 z m -17.68062,17.95581 1.513,2.25194 2.37205,-1.59369 q 1.37118,-0.92125 1.64502,-1.96229 0.27384,-1.04105 -0.54654,-2.26211 -0.74642,-1.11095 -1.86409,-1.30425 -1.11768,-0.1933 -2.27868,0.58673 -1.15099,0.77331 -1.37416,1.95464 -0.23318,1.18804 0.5334,2.32903 z m 0.37748,4.54014 -3.75224,-5.58481 -1.64141,1.1028 -0.71279,-1.06091 3.483,-2.34011 0.77331,1.151 q 0.11292,-1.15083 0.67826,-2.03909 0.56533,-0.88826 1.63626,-1.60777 1.77153,-1.19023 3.44452,-0.94876 1.673,0.24147 2.74891,1.84286 1.10953,1.65142 0.53042,3.36241 -0.5791,1.711 -2.75097,3.1702 l -2.58223,1.73491 0.49088,0.73063 q 0.81366,1.21104 1.99811,1.374 1.18117,0.1797 2.51232,-0.71465 1.10095,-0.73969 1.41529,-1.67721 0.31434,-0.93752 -0.18452,-2.02596 l 0.95082,-0.63882 1.44575,2.15186 q -0.68512,1.0559 -1.45141,1.86127 -0.76957,0.8221 -1.63032,1.40041 -2.21191,1.4861 -4.10259,1.15846 -1.89396,-0.31091 -3.29937,-2.40272 z m -7.87001,10.33716 -3.59572,2.06779 -5.75254,-10.00322 -1.81877,1.04591 -0.63716,-1.10798 3.74206,-2.15194 1.13007,1.9651 q -0.10408,-1.41455 0.40597,-2.48679 0.51606,-1.06179 1.6345,-1.70496 1.85012,-1.06395 3.32925,-0.52361 1.47468,0.55681 2.76705,2.80413 l 3.42027,5.94758 1.73514,-0.99783 0.64318,1.11844 -3.66889,2.10987 -3.72082,-6.47022 q -1.16613,-2.02782 -2.0902,-2.49789 -0.93452,-0.46407 -2.20975,0.26928 -1.33795,0.76941 -1.47324,2.1547 -0.1353,1.38529 0.94067,3.25632 l 2.90332,5.04864 1.67243,-0.96176 z m -9.87817,3.88729 1.74762,-0.87262 0.57636,1.15429 -1.74762,0.87262 1.77755,3.55996 -1.99574,0.99651 -1.77755,-3.55996 -3.73257,1.86374 -0.57636,-1.1543 3.73257,-1.86374 -3.63591,-7.28174 q -0.72718,-1.45635 -1.21235,-1.72624 -0.48517,-0.26989 -1.24032,0.10717 -0.77672,0.38783 -0.90648,1.01867 -0.12438,0.64163 0.36577,1.67725 l -1.4995,0.74872 q -0.69475,-1.60732 -0.28971,-2.71254 0.40503,-1.10523 1.96926,-1.88627 1.71526,-0.85646 2.80431,-0.45683 1.09443,0.41042 2.00476,2.23356 z m -6.95432,9.21485 q 0.22745,0.50588 0.0327,1.04296 -0.20579,0.54203 -0.72267,0.77443 -0.50587,0.22745 -1.0369,0.0167 -0.54203,-0.20579 -0.76949,-0.71167 -0.23239,-0.51687 -0.0327,-1.04296 0.19974,-0.52609 0.71662,-0.75848 0.51687,-0.2324 1.05395,-0.0376 0.52609,0.19974 0.75849,0.71661 z m -8.94815,-12.99156 -1.91354,0.86037 -0.52413,-1.16572 5.87257,-2.64045 0.52414,1.16572 -1.93553,0.87026 4.20296,9.34773 1.93553,-0.87026 0.52908,1.17671 -3.95904,1.78008 z m -13.34974,8.20533 q -0.30924,-2.08022 0.54595,-3.56738 0.85519,-1.48716 2.83137,-2.26068 2.60497,-1.01964 4.86059,0.0786 2.26002,1.10947 3.37635,3.96146 1.12072,2.86322 0.20556,5.18962 -0.91075,2.33762 -3.51572,3.35726 -1.13406,0.44389 -2.36237,0.61391 -1.22392,0.18125 -2.56894,0.0862 l -1.19543,-3.0541 1.20143,-0.47026 q 0.85109,1.47967 1.92958,1.88623 1.06726,0.41097 2.53817,-0.16478 1.67302,-0.65485 2.01655,-2.29135 0.34793,-1.62528 -0.66292,-4.20779 -1.01085,-2.58251 -2.36279,-3.55537 -1.36317,-0.96846 -3.04741,-0.30922 -1.33617,0.52301 -1.86089,1.53121 -0.52473,1.00819 -0.26729,2.526 z m -3.5678,-2.08016 0.92011,2.84526 -1.21612,0.39328 q -0.4874,-1.35043 -1.50939,-1.76762 -1.03347,-0.41348 -2.61672,0.0985 -1.42263,0.46006 -1.9977,1.22896 -0.57136,0.78039 -0.24116,1.80147 0.2597,0.8031 0.96993,1.11834 0.69876,0.31896 2.6359,0.31348 l 1.69284,0.0228 q 1.73503,-0.003 2.69121,0.5237 0.94471,0.53089 1.32314,1.70112 0.54168,1.67503 -0.37798,3.02426 -0.91965,1.34922 -3.08802,2.05043 -0.96372,0.31165 -2.11231,0.40429 -1.1486,0.0926 -2.44023,-0.0219 l -0.86075,-2.6617 1.21612,-0.39327 q 0.42803,1.16686 1.42337,1.58 0.99534,0.41314 2.33766,-0.021 1.33085,-0.43037 1.86711,-1.12336 0.52478,-0.68928 0.22055,-1.63006 -0.24857,-0.76868 -0.91697,-1.07211 -0.66468,-0.29196 -2.36934,-0.27295 l -1.84198,0.0254 q -1.90678,0.021 -2.9274,-0.5487 -1.02839,-0.55453 -1.44021,-1.82801 -0.56023,-1.7324 0.44784,-3.16091 1.00031,-1.41332 3.32929,-2.16648 1.18171,-0.38214 2.38767,-0.49332 1.20596,-0.11119 2.49354,0.03 z"
         id="text8-0"
         transform="rotate(-39.82056,269.6534,277.79648)"
         aria-label="General Cosmonautics" />
      <path
         style="font-size:24.6944px;font-family:'DejaVu Serif';-inkscape-font-specification:'DejaVu Serif';stroke-width:16.213;stroke-linejoin:round;paint-order:fill markers stroke"
         d="m 492.10793,280.55107 q -0.0604,1.78353 1.31899,2.73508 1.37896,0.9636 4.12656,1.0566 2.74761,0.093 4.17652,-0.77554 1.44055,-0.85609 1.50093,-2.63962 0.0604,-1.78354 -1.31859,-2.74714 -1.36731,-0.95113 -4.11491,-1.04414 -2.74761,-0.093 -4.18857,0.77513 -1.44096,0.86814 -1.50093,2.63963 z m -1.19304,-0.0404 q 0.0946,-2.79581 1.99595,-4.43257 1.91336,-1.63636 4.97429,-1.53275 3.06093,0.10362 4.84761,1.85316 1.78627,1.76159 1.69123,4.56945 -0.0951,2.80786 -1.99595,4.43258 -1.90131,1.63676 -4.96224,1.53315 -3.06093,-0.10362 -4.85925,-1.86561 -1.78668,-1.74955 -1.69164,-4.55741 z m 6.3557,9.31476 2.12224,0.10709 q 1.28966,0.0708 1.85346,0.1282 0.5638,0.0574 1.55678,0.30402 0.99298,0.24659 1.77914,0.73876 2.03848,1.28635 2.80363,3.4126 0.42495,1.18259 0.42427,2.85511 -6.9e-4,1.67251 0.11715,2.18145 0.11662,0.52092 0.4575,1.10106 0.34087,0.58013 0.53624,0.68487 l -0.12952,1.27155 q -1.12127,-0.29602 -2.16555,-1.34777 -1.04551,-1.03975 -1.08949,-1.91689 -0.20954,-4.13009 -0.43123,-4.92837 -0.22169,-0.79827 -1.39504,-2.12982 -0.77105,-0.87847 -3.01548,-1.09497 1.20557,0.77729 2.06603,1.96788 0.83769,1.17615 0.59941,3.51531 -0.2847,2.79501 -2.29112,4.28746 -2.00764,1.50445 -5.05456,1.19408 -3.04692,-0.31037 -4.72197,-2.18995 -1.66428,-1.86635 -1.38079,-4.64936 0.28471,-2.79501 2.19982,-4.22404 1.91512,-1.42903 5.15908,-1.26827 z m 4.90197,6.72911 q 0.36535,-3.58672 -5.16469,-4.15003 -2.73502,-0.2786 -4.23139,0.49012 -1.49637,0.76871 -1.67599,2.53208 -0.36536,3.58673 5.17667,4.15125 5.53004,0.56331 5.8954,-3.02342 z m -2.89926,24.4066 -1.1604,6.11267 -1.2557,-0.23838 0.37331,-1.96648 -10.08116,-1.91375 -0.37331,1.96648 -4.60819,-0.8748 0.23388,-1.23201 1.7063,0.12755 q 1.71815,0.12979 1.94303,-1.05483 l 3.4587,-18.21953 1.25571,0.23837 -0.37331,1.96648 10.08116,1.91375 0.3733,-1.96647 1.25571,0.23837 -1.1604,6.11267 -1.2557,-0.23838 0.3733,-1.96648 -9.87977,-1.87552 -1.00073,5.27158 9.87978,1.87552 0.3733,-1.96647 1.2557,0.23837 -1.16039,6.11267 -1.25571,-0.23838 0.37331,-1.96648 -9.87977,-1.87552 -1.00073,5.27158 9.87977,1.87552 0.37331,-1.96647 z m -12.82872,14.90623 2.61227,0.73243 0.7715,-2.75159 q 0.44597,-1.59058 -0.0209,-2.56052 -0.4669,-0.96993 -1.88333,-1.36707 -1.28872,-0.36134 -2.26473,0.21656 -0.97601,0.57789 -1.35362,1.92466 -0.37436,1.33516 0.22209,2.37899 0.59319,1.05544 1.91674,1.42654 z m 3.23236,3.21049 -6.47843,-1.81643 -0.53386,1.90405 -1.23067,-0.34506 1.13283,-4.04031 1.33516,0.37436 q -0.66057,-0.94911 -0.80651,-1.99185 -0.14593,-1.04274 0.20239,-2.28502 0.57618,-2.05498 2.00607,-2.95644 1.4299,-0.90145 3.28751,-0.38061 1.91566,0.53712 2.58481,2.21494 0.66914,1.67783 -0.0373,4.19722 l -0.83986,2.99541 0.84754,0.23763 q 1.40482,0.39389 2.41197,-0.25041 1.01551,-0.62944 1.44846,-2.17358 0.35808,-1.27711 -0.0108,-2.19453 -0.36891,-0.91742 -1.45462,-1.42219 l 0.30925,-1.10296 2.49617,0.69988 q 0.16351,1.24803 0.10274,2.35805 -0.0524,1.12487 -0.33237,2.12334 -0.71941,2.56583 -2.37088,3.54291 -1.64311,0.99195 -4.06962,0.3116 z m -4.96991,12.19052 4.08894,1.45712 0.94308,-2.64645 q 0.43714,-1.22668 0.0757,-2.00833 -0.36148,-0.78164 -1.25878,-1.1014 -0.89729,-0.31976 -1.67894,0.0417 -0.78569,0.37284 -1.22688,1.61088 z m 3.83173,5.98646 -1.20397,-0.42904 0.71642,-2.01039 -9.6658,-3.44449 -0.67189,1.88546 -1.20397,-0.42905 2.06426,-5.79266 1.20397,0.42904 -0.64761,1.81731 4.40697,1.57046 0.6638,-1.86274 -4.36833,-5.48646 1.16165,-3.2598 1.20397,0.42905 -0.595,1.66965 3.54678,4.45126 q 0.50319,-0.72953 1.65106,-1.65173 1.14787,-0.92221 2.76073,-0.34745 1.35162,0.48166 1.85213,1.73527 0.49646,1.26496 -0.13092,3.02548 z m -7.05866,16.10286 -1.15164,-0.55438 0.86818,-1.80351 -4.49792,-2.16522 2.15488,7.03253 0.80019,-1.66228 1.15164,0.55438 -2.51563,5.22584 -1.15164,-0.55438 0.95186,-1.97734 -1.53063,-4.96558 -8.17533,1.47093 -0.80018,1.66227 -1.15164,-0.55438 2.74051,-5.69301 1.15164,0.55438 -0.79496,1.65141 6.41094,-1.16941 -0.70836,-2.28141 -3.28109,-1.57946 -0.86818,1.80351 -1.15164,-0.55438 2.69868,-5.60609 1.15164,0.55438 -0.86818,1.80351 9.24572,4.45073 0.86817,-1.80352 1.15164,0.55438 z m -18.13188,8.85373 q -0.883,1.55079 -0.10451,3.03471 0.77253,1.49441 3.16158,2.85471 2.38905,1.3603 4.05797,1.25604 1.67343,-0.0878 2.55643,-1.63861 0.88301,-1.55079 0.11048,-3.04519 -0.76801,-1.47796 -3.15707,-2.83826 -2.38905,-1.36031 -4.06844,-1.26201 -1.6794,0.0983 -2.55644,1.63861 z m -1.03735,-0.59066 q 1.38417,-2.43096 3.82859,-2.99557 2.4549,-0.55864 5.11639,0.95679 2.66148,1.51543 3.42939,3.89522 0.76194,2.39028 -0.62819,4.83172 -1.39014,2.44145 -3.82859,2.99557 -2.44442,0.56461 -5.10591,-0.95082 -2.66149,-1.51542 -3.43391,-3.91166 -0.7679,-2.3798 0.62223,-4.82125 z m -7.1725,19.35124 q -1.45245,-1.52095 -1.61162,-3.22907 -0.15917,-1.70812 1.00902,-3.47983 1.53988,-2.33544 4.01594,-2.7393 2.48612,-0.39722 5.04303,1.28869 2.56697,1.69254 3.16121,4.12081 0.6043,2.43491 -0.93558,4.77035 -0.67038,1.01672 -1.57572,1.86408 -0.89527,0.85399 -2.04885,1.55212 l -2.7381,-1.80538 0.7102,-1.07712 q 1.54871,0.71784 2.66422,0.42791 1.10888,-0.27986 1.97839,-1.59858 0.98897,-1.49992 0.3257,-3.03491 -0.65321,-1.52837 -2.96852,-3.05497 -2.3153,-1.52661 -3.98083,-1.54156 -1.67217,-0.005 -2.66778,1.5051 -0.78985,1.19792 -0.63698,2.32416 0.15286,1.12625 1.23861,2.21765 z m -4.30331,-0.39986 1.01118,0.78174 -1.22424,1.58356 8.1181,6.27604 1.22423,-1.58355 1.01119,0.78174 -3.17859,4.11151 -9.17845,-2.53875 4.76826,8.24336 -3.06796,3.96842 -1.01119,-0.78174 1.22424,-1.58355 -8.1181,-6.27605 -1.22423,1.58355 -1.01119,-0.78174 3.80546,-4.92236 1.01118,0.78174 -1.22423,1.58355 7.84144,6.06217 -5.35394,-9.26006 0.99562,-1.28783 10.3025,2.85908 -7.84145,-6.06218 -1.22423,1.58355 -1.01119,-0.78174 z m -15.63146,20.5163 q -1.19759,1.32303 -0.75857,2.94023 0.43094,1.62614 2.46912,3.47108 2.03819,1.84494 3.69014,2.10419 1.6528,0.27629 2.85039,-1.04674 1.19759,-1.32304 0.76666,-2.94918 -0.43009,-1.6091 -2.46827,-3.45404 -2.03819,-1.84494 -3.69908,-2.11229 -1.66089,-0.26735 -2.85039,1.04675 z m -0.885,-0.80109 q 1.8773,-2.07395 4.38598,-2.09635 2.51762,-0.0143 4.78823,2.041 2.27061,2.05533 2.50549,4.5449 0.22678,2.4985 -1.65862,4.58139 -1.88539,2.08288 -4.38598,2.09635 -2.50868,0.0224 -4.77929,-2.03292 -2.27061,-2.05532 -2.50633,-4.56192 -0.23488,-2.48957 1.65052,-4.57245 z m -6.23676,23.20785 -7.09756,-7.41059 -1.44555,1.38448 -0.88406,-0.92305 4.49337,-4.30358 0.88407,0.92306 -1.44554,1.38448 3.4195,3.57032 4.24084,-4.06171 -3.4195,-3.57031 -1.44555,1.38448 -0.88406,-0.92306 4.49337,-4.30357 0.88407,0.92305 -1.44554,1.38449 7.09756,7.41058 1.44554,-1.38448 0.88407,0.92306 -4.49337,4.30357 -0.88407,-0.92305 1.44554,-1.38449 -2.64386,-2.76046 -4.24084,4.0617 2.64386,2.76047 1.44554,-1.38448 0.88407,0.92305 -4.49338,4.30358 -0.88406,-0.92306 z m -15.38203,3.30879 1.7329,2.08745 2.19878,-1.82532 q 1.27103,-1.05514 1.43822,-2.11854 0.16719,-1.0634 -0.77242,-2.19526 -0.8549,-1.02981 -1.98639,-1.10913 -1.1315,-0.0793 -2.20769,0.81408 -1.06692,0.88571 -1.16953,2.08354 -0.11188,1.20554 0.76613,2.26318 z m 0.83451,4.47873 -4.29759,-5.17689 -1.52153,1.2631 -0.81639,-0.98343 3.2286,-2.68022 0.8857,1.06692 q -0.004,-1.15635 0.46865,-2.09721 0.47264,-0.94085 1.46534,-1.76494 1.64213,-1.36322 3.33097,-1.29211 1.68883,0.0711 2.92112,1.55551 1.27079,1.5308 0.86762,3.29157 -0.40316,1.76077 -2.4164,3.43206 l -2.39361,1.98706 0.56223,0.67727 q 0.93192,1.12258 2.12677,1.16497 1.19329,0.0594 2.4272,-0.96497 1.02054,-0.8472 1.23849,-1.81169 0.21795,-0.9645 -0.38838,-1.99693 l 0.88137,-0.73167 1.65588,1.99468 q -0.57487,1.11975 -1.25582,1.99846 -0.68252,0.8957 -1.48039,1.55805 -2.05034,1.70209 -3.96446,1.56727 -1.91569,-0.11785 -3.52537,-2.05686 z m -6.11905,10.60424 q -3.39624,2.46434 -5.25866,-0.10236 -0.66566,-0.91738 -0.47398,-1.90562 0.19876,-0.97849 1.24854,-1.93389 -3.13661,1.75453 -4.81491,-0.55843 -1.11887,-1.54197 -0.60573,-3.03163 0.51314,-1.48966 2.7285,-3.09715 l 5.3969,-3.91603 0.75063,1.03448 -1.6298,1.1826 6.0263,8.30517 1.62981,-1.1826 0.75063,1.03449 z m -0.65857,-5.79405 -1.64933,1.19676 q -1.03448,0.75063 -1.27918,1.58368 -0.24738,0.8499 0.23416,1.51353 0.48154,0.66363 1.36624,0.69208 0.88471,0.0284 1.90944,-0.71511 l 1.64932,-1.19676 z m -3.79566,-5.23099 -1.99089,1.44461 q -1.14184,0.82853 -1.36012,1.82118 -0.22803,0.99973 0.41638,1.88783 0.64441,0.8881 1.64872,0.97873 1.00432,0.0906 2.15592,-0.74498 l 1.9909,-1.44461 z m -11.75303,21.7638 -1.86569,-2.9432 1.06933,-0.67785 1.07164,1.69056 2.9432,-1.86568 -5.38402,-8.49352 -1.69056,1.07164 -0.6843,-1.07951 5.25499,-3.33112 0.6843,1.07951 -1.69056,1.07164 5.38402,8.49352 2.94319,-1.86569 -1.07164,-1.69055 1.06933,-0.67785 1.86569,2.9432 z m -8.37992,-9.87572 0.60874,1.12386 -1.75999,0.95331 4.8872,9.02262 1.75999,-0.95332 0.60874,1.12385 -5.47081,2.96333 -0.60875,-1.12385 1.75999,-0.95332 -3.50316,-6.46745 -2.20576,8.25701 0.54557,1.00722 1.75999,-0.95332 0.60875,1.12385 -5.47082,2.96333 -0.60875,-1.12385 1.76,-0.95332 -4.8872,-9.02261 -1.75999,0.95332 -0.60875,-1.12385 5.47082,-2.96333 0.60875,1.12385 -1.76,0.95332 3.41128,6.2978 2.20576,-8.257 -0.45369,-0.83758 -1.75999,0.95331 -0.60874,-1.12385 z m -14.91425,22.01284 -0.52564,-1.16504 1.8245,-0.82316 -2.05296,-4.55025 -2.87099,6.77181 1.68162,-0.75871 0.52563,1.16504 -5.28664,2.3852 -0.52563,-1.16503 2.00035,-0.90251 2.02019,-4.78734 -7.20737,-4.12958 -1.68161,0.75871 -0.52564,-1.16504 5.75925,-2.59843 0.52564,1.16503 -1.67062,0.75375 5.66213,3.22613 0.92424,-2.20281 -1.49757,-3.31926 -1.82449,0.82316 -0.52564,-1.16504 5.67133,-2.55876 0.52563,1.16504 -1.82449,0.82317 4.21997,9.35329 1.82449,-0.82317 0.52564,1.16504 z m -20.72237,-1.05734 0.94351,2.54366 2.67932,-0.99383 q 1.54881,-0.5745 2.05884,-1.52246 0.51004,-0.94796 -0.002,-2.32719 -0.46547,-1.25487 -1.50679,-1.70455 -1.04132,-0.44969 -2.35272,0.0368 -1.30009,0.48224 -1.79372,1.57844 -0.50493,1.10039 -0.0269,2.38918 z m -0.69633,4.50228 -2.33991,-6.30827 -1.85404,0.68771 -0.4445,-1.19834 3.93419,-1.4593 0.48224,1.30009 q 0.3793,-1.09237 1.13695,-1.82353 0.75764,-0.73115 1.96729,-1.17984 2.00101,-0.74223 3.57093,-0.11565 1.56991,0.62657 2.24085,2.43539 0.69191,1.86535 -0.2718,3.39313 -0.96372,1.52778 -3.41694,2.43775 l -2.91672,1.08189 0.30611,0.82528 q 0.5074,1.36792 1.62075,1.80375 1.10623,0.45133 2.60981,-0.10639 1.24357,-0.46128 1.76873,-1.2991 0.52517,-0.83783 0.2951,-2.01283 l 1.07399,-0.39837 0.90158,2.43061 q -0.91337,0.86607 -1.84696,1.46958 -0.94071,0.61901 -1.91295,0.97964 -2.49844,0.92673 -4.25981,0.16541 -1.76847,-0.74583 -2.64489,-3.10861 z"
         id="text8-9"
         transform="rotate(139.24455,273.14527,273.15081)"
         aria-label="общая космонавтика" />
    </g>
  </g>
  <metadata
     id="metadata7">
    <rdf:RDF>
      <cc:License
         rdf:about="http://creativecommons.org/licenses/by/4.0/">
        <cc:permits
           rdf:resource="http://creativecommons.org/ns#Reproduction" />
        <cc:permits
           rdf:resource="http://creativecommons.org/ns#Distribution" />
        <cc:requires
           rdf:resource="http://creativecommons.org/ns#Notice" />
        <cc:requires
           rdf:resource="http://creativecommons.org/ns#Attribution" />
        <cc:permits
           rdf:resource="http://creativecommons.org/ns#DerivativeWorks" />
      </cc:License>
      <cc:Work
         rdf:about="">
        <cc:license
           rdf:resource="http://creativecommons.org/licenses/by/4.0/" />
      </cc:Work>
    </rdf:RDF>
  </metadata>
</svg>
